<?xml version="1.0" encoding="UTF-8" standalone="no"?>
<svg
   viewBox="0 0 1583.84 2006.34"
   version="1.1"
   id="svg99"
   sodipodi:docname="tsuruma1.svg"
   inkscape:version="1.4 (e7c3feb1, 2024-10-09)"
   xmlns:inkscape="http://www.inkscape.org/namespaces/inkscape"
   xmlns:sodipodi="http://sodipodi.sourceforge.net/DTD/sodipodi-0.dtd"
   xmlns="http://www.w3.org/2000/svg"
   xmlns:svg="http://www.w3.org/2000/svg">
  <sodipodi:namedview
     id="namedview99"
     pagecolor="#ffffff"
     bordercolor="#000000"
     borderopacity="0.25"
     inkscape:showpageshadow="2"
     inkscape:pageopacity="0.0"
     inkscape:pagecheckerboard="0"
     inkscape:deskcolor="#d1d1d1"
     inkscape:zoom="0.58692848"
     inkscape:rotation="1"
     inkscape:cx="705.5983"
     inkscape:cy="885.71527"
     inkscape:window-width="1472"
     inkscape:window-height="831"
     inkscape:window-x="0"
     inkscape:window-y="37"
     inkscape:window-maximized="0"
     inkscape:current-layer="i" />
  <defs
     id="defs1">
    <style
       id="style1">
      .ae {
        fill: #40220f;
      }

      .af {
        fill: #231815;
      }

      .ag {
        fill: #fff;
      }

      .ah {
        fill: #7fffbf;
      }

      .ai {
        fill: #bfff7f;
      }

      .aj {
        fill: #89c4ff;
      }

      .ak {
        fill: #dcdddd;
      }

      .al {
        fill: #ffbf7f;
      }
    </style>
  </defs>
  <g
     id="a"
     data-name="名前">
    <g
       id="b"
       data-name="highlight-wh">
      <g
         id="g2">
        <path
           class="ag"
           d="M1048.26,878.13c-4.85-8.52-12.34-14.92-22.28-19.03-2.1-1.1-4.3-2.06-6.57-2.88,3.19-1.51,5.94-3.51,8.24-6.01,1.91-2.07,2.75-4.96,2.24-7.73-.51-2.8-3.56-12.52-21.24-20.21-6.91-3.36-15.6-6-25.83-7.83-8.41-1.51-16.06-2.27-22.76-2.27-19.06,0-25.59,6.09-27.14,7.95l-.31.37-1.03,2.09-.11.48c-.1.44-.23,1.25-.22,2.34-.02.06-.03.13-.05.2-.32,1.42-1.07,6.5,2.87,12.42.17.26.37.51.56.76-5.06,1.37-9.43,4.73-12.02,9.44l-.86,1.56c-3.8,6.9-7.91,14.38-10.56,21.82,0-3.5-.86-6.94-2.6-10.15-1.71-3.16-4.18-5.87-7.15-7.89,2.37-3.24,3.88-7.19,4.24-11.39.72-8.17-3.19-18-13.52-21.78-1.93-1.06-3.98-1.78-6.11-2.14-8.46-1.43-17.42-2.16-26.64-2.16-1.3,0-2.68.02-4.2.06-2.18-2.51-4.95-4.44-8.14-5.66-2.39-1.39-5.07-2.27-7.81-2.55-.67-.07-1.34-.1-2.01-.1h0c-8.06,0-15.19,4.99-18.09,12.26-7.5,1.4-15.25,3.17-23.09,5.26-5.03,1.34-9.24,4.57-11.85,9.08-1.63,2.82-2.52,6.01-2.6,9.26-.14.77-.24,1.5-.3,2.23-.03.41-.04.83-.02,1.25.66,12.22,7.2,19.67,18.1,20.87-5.69,3.93-10.74,8.44-14.84,13.31-7.58,9.01-11.82,18.76-12.61,28.98-.25,1.76-.4,3.49-.44,5.16-.09,1.59-.08,3.17,0,4.74-.25-.63-.53-1.27-.85-1.92-.13-.27-.27-.53-.43-.78-2.48-4.01-6.08-7.01-10.43-8.71-2.9-1.62-6.19-2.48-9.54-2.48s-6.87.93-9.87,2.69c-2.21,1.08-18.25,7.26-35.08,7.26-4.3,0-8.35-.4-12.03-1.2-2.93-.64-5.46-1.42-7.53-2.34-2.55-1.67-3.91-3.74-4.24-6.5-.74-8.29-5.53-15.17-12.86-18.52-3.24-2.19-7.01-3.35-10.92-3.35-3.32,0-6.61.86-9.52,2.49-.53.3-1.03.62-1.52.96-.36-5.41-2.56-9.87-6.4-12.96.36-.3.71-.61,1.05-.94,5.32-4.95,7.16-12.75,4.7-19.89-1.89-5.5-5.91-9.68-11.08-11.62,2.92-3.08,4.62-6.92,5.1-10.62,1.04-8.04-3.31-15.54-11.11-19.23-2.23-1.52-4.81-2.5-7.49-2.83-6.95-.85-20.93-1.36-37.38-1.37-13.02,0-26.61.3-39.59.88-.27-1.1-.64-2.18-1.12-3.24-1.98-4.42-5.45-7.96-9.82-10.02-2.77-1.81-5.97-2.77-9.28-2.77h0c-5.59,0-10.82,2.75-14,7.34l-21.3,30.86c-.84,1.21-1.51,2.53-2,3.9-1.33-4.48-3.26-8.45-6.01-11.53-.12-.14-.25-.27-.4-.42-1.96-1.92-4.25-3.44-7-4.64-1.47-.85-3.14-1.56-5.04-2.14.08-.74.12-1.49.12-2.24-.04-9.04-4.88-16.32-12.97-19.58-3.08-1.9-6.59-2.9-10.2-2.9-10.39,0-18.86,8.04-19.45,18.37-.24,1.35-.37,2.72-.37,4.11,0,.87.05,1.73.15,2.58-6.55,1.53-11.07,3.79-13.72,6.86-1.47-1.26-3.11-2.34-4.93-3.24-1.18-.71-2.52-1.33-4.03-1.85-.29-2.71-1.16-5.32-2.58-7.69-1.95-3.24-4.92-5.94-8.41-7.64-1.56-1.09-3.27-1.9-5.08-2.41-1.5-.42-3.05-.64-4.6-.64-7.58,0-14.31,5.1-16.36,12.41-.33,1.17-.71,2.4-1.13,3.68-13.53.71-18.33,2.22-20.77,3.34-6.95,3.17-11.39,9.57-12.51,18.03-.93,4.25-.89,9.01.11,14.52.07.41.18.82.31,1.21,1.59,4.82,4.46,8.53,8.17,10.73-3.79,5.53-7.4,10.18-10.1,12.98-2.95,3.06-4.62,7.04-4.75,11.28-.25,1.3-.36,2.6-.34,3.86.09,5.07,2.15,9.81,5.78,13.31,2.61,2.56,5.87,4.26,9.42,4.97-.07.88-.14,1.75-.21,2.62-2.25,21.07-2.46,34.69,3.13,41.9.16.21.34.41.51.6,3.18,3.44,7.58,5.33,12.38,5.33,3.71,0,7.26-1.12,10.22-3.15,5.64,3.6,10.66,4.44,14.1,4.44,7.38,0,14.04-3.59,18.73-10.11.71-.99,1.37-2.03,1.97-3.12.94,3.03,2.17,5.86,3.67,8.29,1.35,2.19,3.57,3.7,6.1,4.15,2.48.44,5.16-.23,7.16-1.81,1.64-1.3,3.33-3.43,4.9-6.08.37.47.75.92,1.14,1.34,1.7,1.84,4.11,2.9,6.61,2.9.14,0,.28,0,.43-.01,2.64-.12,5.03-1.36,6.75-3.47.62-.76,1.34-2.01,2.08-3.5,1.14.82,2.45,1.35,3.84,1.57,3.71,8.13,12.99,13.49,24.19,13.49,7.83,0,14.92-2.63,19.54-7.24,3.09-2.33,4.99-6.48,6.16-13.53,2.99,1.62,6.42,2.5,9.83,2.42v.08c-.82,3.36-.54,6.88.81,10.2,2.75,6.77,9.59,11.5,16.64,11.5,4.57,0,8.76-1.82,12.07-5.23,2.81-2.82,5.45-5.59,8.01-8.39,4.95,1.18,10.01.3,13.95-2.31,2.42,1.32,5.11,2.02,7.9,2.02.25,0,.49,0,.73-.02.36-.02.73-.05,1.07-.11,8.55-1.41,17.67-2.36,27.17-2.83.7,4.11,2.25,7.49,4.61,10.08,2.19,2.39,6.13,5.25,12.55,5.27,6.29,0,10.21-2.77,12.4-5.09,2.46-2.62,4.04-5.97,4.79-10.17,16.01-.43,18.65-11.35,19.03-16.09l.02-.33c.23-5.03-1.29-9.42-4.39-12.7-.65-.68-1.36-1.31-2.13-1.89.56-.7,1.05-1.44,1.49-2.22,2.94,8.96,8.58,17.42,16.33,24.23,8.64,7.59,23.88,16.64,47.45,16.64,1.09,0,2.2-.02,3.4-.06h.13c35.94-2.2,55.99-8.9,63.1-21.08,1.12-1.93,2.44-4.99,2.67-8.95,1.85,6.05,5.07,11.62,9.54,16.36,9.11,9.65,22.46,14.72,35.86,13.49,3.68,3.12,8.28,4.81,13.22,4.81,6.81,0,13.65-3.34,17.83-8.71,2.7-3.46,4.18-7.47,4.37-11.72,6.42-5.22,14.91-12.79,23.47-21.52-.37,1.47-.8,2.97-1.29,4.51-.65,2.03-.95,4.15-.91,6.29-.05.25-.11.49-.15.73-.1.47-.16.96-.18,1.47-.22,5.74,1.72,10.91,5.6,14.95,4.12,4.29,10.05,6.75,16.26,6.75,9.53,0,17.4-5.76,20.1-14.68,3.64-10.08,5.12-20.99,4.6-31.29,3.52,1.74,7.55,2.64,11.98,2.64,10.19,0,21.45-4.46,33.38-9.19,11.3-4.48,22.99-9.11,32.26-9.11,6.08,0,10.1,1.89,13.42,6.24.28.38.45.7.55.96-1.99,4.99-9.25,11.36-13.86,14.07-5.81,3.37-9.5,9.61-9.68,16.35-.41,2.84-.26,5.73.46,8.59,2.45,9.83,10.58,16.44,20.22,16.44.27,0,.54,0,.87-.02.16,0,.32-.02.53-.04,14.27-1.46,32.36-17.66,40.3-36.11,6.92-16.06,5.57-31.8-3.78-44.37ZM559.84,916.66s0,0,0,0h0s0,0,0,0ZM493.07,931.93s0,0,0,0c0,0,0,0,0,0h0s0,0,0,0ZM493.06,931.91h0s0,0,0,0ZM457.21,821.74s0,0,0,0h0s0,0,0,0Z"
           id="path1" />
        <path
           class="ag"
           d="M670.46,864.6c2.39,0,4.76-.4,7.02-1.18,19.59-6.77,33.49-8.19,41.7-8.19.43,0,.84,0,1.25.01-.03.07-.05.13-.08.18-1.47,2.85-2.02,7.26-2.17,8.86-.08.49-.27,1.6-.34,2.33-.02.2-.03.4-.04.65-.17,5.47,2.05,11,6.09,15.16,4.05,4.18,9.55,6.58,15.09,6.58h.32s.28,0,.28,0c4.47,0,12.88-1.6,19.01-12.29,7.75-13.52,8.35-35.94,1.29-47.97l-.12-.19c-3.26-5.28-8.38-9.35-15.21-12.12-7.13-3.47-16.32-5.23-27.33-5.23h0s0,0,0,0c-16.01,0-34.96,3.63-54.8,10.48-4.92,1.7-8.89,5.22-11.17,9.9-1.2,2.46-1.85,5.1-1.94,7.84-.64,3.65-.35,7.36.85,10.75,2.99,8.63,11.15,14.43,20.3,14.43Z"
           id="path2" />
      </g>
    </g>
    <g
       id="c"
       data-name="highlight-bk">
      <g
         id="g25">
        <g
           id="g4">
          <path
             class="af"
             d="M1010.34,951.66c-7.36,0-12.05-5.59-13.43-11.13-1.65-6.62.94-12.85,6.61-15.92,4.59-3,15.22-10.73,16.68-18.8.5-2.77-.13-5.3-1.93-7.74-4.63-6.1-10.86-9.07-19.04-9.07-10.61,0-22.93,4.88-34.84,9.6-11.28,4.47-21.94,8.7-30.79,8.7-5.73,0-10.15-1.75-13.5-5.35-11.4-12.1-.79-31.35,7.74-46.82l.84-1.52c2.63-4.75,7.05-7.48,12.12-7.48,5.37,0,10.6,2.97,13.33,7.56,2.53,4.26,2.52,9.19-.02,13.86l-.15.27c-.62,1.12-1.2,2.17-1.81,3.3,14.9-6.43,31.4-10.06,46.09-10.06,21.03,0,36.7,7.41,44.16,20.88,8.03,10.54,9.18,23.95,3.23,37.77-7.65,17.76-24.06,30.84-34.59,31.91-.04,0-.08,0-.12,0-.19,0-.37.01-.56.01Z"
             id="path3" />
          <path
             class="af"
             d="M940.8,848.15c8.42,0,16.88,8.69,11.55,18.47-1.53,2.77-2.77,5.02-4.77,8.83,15.41-7.58,33.91-12.36,50.66-12.36,18.4,0,34.7,5.78,42.48,19.98,20.99,27.3-12.53,64.82-29.88,66.59-.16,0-.32,0-.48,0-11.91,0-16.72-17.52-5.8-23.33,5.89-3.84,24.48-17.07,15.34-29.44-5.51-7.25-12.66-9.88-20.65-9.88-21.07,0-47.93,18.3-65.64,18.3-4.78,0-8.89-1.33-12.04-4.71-10.76-11.42.29-30.41,8.87-46.01,2.52-4.55,6.44-6.44,10.37-6.44M940.8,844.15v4s0-4,0-4c-5.83,0-10.88,3.1-13.87,8.51l-.84,1.52c-8.84,16.04-19.85,35.99-7.44,49.16,3.69,3.96,8.72,5.97,14.95,5.97,9.23,0,20.06-4.29,31.53-8.84,11.74-4.65,23.88-9.46,34.11-9.46,7.6,0,13.15,2.63,17.45,8.28,1.46,1.99,1.96,3.95,1.55,6.17-.91,5.07-6.79,11.58-15.74,17.44-6.35,3.48-9.37,10.73-7.53,18.12,1.89,7.56,8.07,12.65,15.37,12.65.21,0,.42,0,.64-.01.08,0,.17,0,.25-.02,12.45-1.27,29.04-16.43,36.22-33.11,6.23-14.46,5.03-28.53-3.38-39.65-7.85-14.05-24.11-21.78-45.84-21.78-13.28,0-27.99,2.91-41.72,8.13,2.18-4.89,1.96-10.1-.66-14.52-3.08-5.19-8.99-8.54-15.05-8.54h0Z"
             id="path4" />
        </g>
        <g
           id="g6">
          <path
             class="af"
             d="M1000.9,852.75c-6.44,0-13.2-.96-19.17-1.81-1.79-.25-3.51-.5-5.14-.7-24.33-4.27-33.37-11.12-36.69-16.11-2.51-3.77-1.95-6.68-1.88-6.99.07-.31.21-.59.41-.84.52-.63,5.62-6.15,23.3-6.15,6.4,0,13.77.74,21.88,2.19,4.27.77,8.29,1.68,11.95,2.71,25.04,7.07,27.36,18.21,27.44,18.68.11.62-.07,1.25-.5,1.72-4.53,4.91-11.6,7.3-21.61,7.3h0Z"
             id="path5" />
          <path
             class="af"
             d="M961.74,822.16c5.69,0,12.77.59,21.53,2.16,4.41.79,8.31,1.69,11.76,2.67,24.13,6.81,26.02,17.11,26.02,17.11-4.74,5.14-12.16,6.65-20.14,6.65s-16.99-1.6-24.06-2.49c-39.97-7.03-36.87-20.67-36.87-20.67,0,0,4.51-5.42,21.76-5.42M961.74,818.16c-18.2,0-23.88,5.72-24.84,6.87-.4.48-.69,1.06-.82,1.67-.15.66-.75,4.17,2.16,8.54,5.14,7.73,17.9,13.44,37.91,16.96.06.01.13.02.19.03,1.61.2,3.31.45,5.11.7,6.03.86,12.87,1.83,19.45,1.83,10.6,0,18.15-2.6,23.08-7.94.85-.92,1.22-2.2.99-3.43-.24-1.3-3.09-12.96-28.87-20.24-3.72-1.05-7.8-1.98-12.14-2.76-8.23-1.48-15.71-2.22-22.23-2.22h0Z"
             id="path6" />
        </g>
        <g
           id="g8">
          <path
             class="af"
             d="M831.9,957.9c-4.31,0-8.05-1.84-10.67-5.21-2.17.39-4.36.59-6.55.59-10.13,0-19.88-4.18-26.76-11.48-6.62-7.02-9.96-16.27-9.39-26.04.55-22.85,21.08-41.1,41.56-49.31.35-2.87.72-5.8,1.08-8.71-1.06.25-2.16.54-3.3.83-4.86,1.24-10.36,2.65-15.23,2.65-8.99,0-13.81-4.85-14.33-14.42,0-.09,0-.19,0-.28,1.15-13.27,15.54-15.44,27.12-17.18,3.38-.51,6.6-.99,9.25-1.69,1.21-7.63,8-11.61,14.47-11.61,5.99,0,10.86,3.13,13.04,8.27,2.97-.14,5.92-.21,8.79-.21,8.99,0,17.71.7,25.92,2.08,8.96,1.59,12.39,8.87,11.81,15.38-.59,6.68-5.56,13.44-13.94,13.44-.88,0-1.79-.08-2.71-.23-6.66-1.12-13.73-1.68-21.01-1.68-3.28,0-6.68.11-10.14.34-.28,2.25-.56,4.48-.84,6.71.64-.01,1.28-.02,1.92-.02,8.93,0,17.6,1.31,25.21,3.8,2.87-4.59,7.17-7.18,12.02-7.18,5.38,0,10.56,3.16,13.21,8.04,2.45,4.53,2.3,9.82-.37,14.71.86.97,1.79,2.09,2.79,3.39,10.57,12.53,12.95,37.43,5.5,57.88-1.77,6.09-6.92,9.87-13.45,9.87h0c-4.25,0-8.44-1.72-11.21-4.6-2.53-2.63-3.8-6.03-3.65-9.83,0-.11.02-.22.04-.32.38-1.85.8-3.71,1.22-5.56,2.04-8.99,3.97-17.53,1.07-25.1-12.16,14.21-27.46,28.22-37.44,36,.62,3.84-.33,7.58-2.72,10.66-2.89,3.71-7.6,6.01-12.31,6.01ZM846.71,889.38c-.47,5.08-.8,9.85-1.01,14.43,4.83-4.67,9.54-9.56,13.72-14.22-2.43-.31-4.94-.47-7.41-.47-1.82,0-3.6.09-5.3.25Z"
             id="path7" />
          <path
             class="af"
             d="M839.15,818.04c4.99,0,9.95,2.67,11.67,8.35,3.39-.19,6.77-.29,10.17-.29,8.57,0,17.14.63,25.59,2.05,15.33,2.72,12.29,24.85-1.79,24.85-.76,0-1.56-.07-2.39-.2-7.08-1.19-14.19-1.71-21.33-1.71-3.96,0-7.94.16-11.92.46-.44,3.58-.88,7.12-1.33,10.68,1.4-.07,2.8-.1,4.2-.1,9.27,0,18.42,1.48,26.13,4.23,2.76-5.4,6.97-7.61,11.1-7.61,8.88,0,17.39,10.23,10.35,21.01,1.29,1.34,2.58,2.91,3.7,4.36,10.47,12.41,12.11,37.08,5.17,56.03-1.67,5.85-6.57,8.49-11.55,8.49-6.52,0-13.17-4.54-12.87-12.35,2.45-12.02,6.71-24.25.81-34.73-13.18,15.89-30.3,31.34-40.13,38.85,2.23,8.82-5.35,15.49-12.82,15.49-3.69,0-7.35-1.63-9.79-5.42-2.49.54-4.98.8-7.44.8-18.69,0-35.34-15.02-34.16-35.4.53-22.11,20.76-40.09,41.4-48,.51-4.18,1.05-8.47,1.58-12.71-6.06,1.2-14.17,4.05-20.87,4.05s-11.8-2.75-12.33-12.53c1.36-15.8,24.64-13.83,36.22-17.49.45-7.23,6.57-11.16,12.63-11.16M843.53,908.64c6.6-6.16,13.71-13.42,19.8-20.45-3.52-.68-7.42-1.06-11.31-1.06-2.42,0-4.83.15-7.14.46-.67,7.01-1.16,13.93-1.35,21.06M839.15,814.04c-6.97,0-14.28,4.1-16.18,11.97-2.31.52-5.02.93-7.84,1.36-11.62,1.75-27.53,4.14-28.81,18.98-.02.19-.02.37,0,.56.57,10.52,6.36,16.31,16.32,16.31,5.12,0,10.75-1.44,15.73-2.71.15-.04.31-.08.46-.12-.19,1.56-.39,3.11-.58,4.65-20.7,8.66-41.12,27.28-41.72,50.67-.58,10.3,2.95,20.05,9.94,27.46,7.26,7.69,17.54,12.11,28.22,12.11,1.92,0,3.85-.14,5.76-.43,2.95,3.24,7,5.05,11.47,5.05,5.31,0,10.63-2.6,13.89-6.78,2.5-3.21,3.62-7.04,3.27-11.01,9.39-7.42,22.96-19.85,34.39-32.76,1.15,6.24-.44,13.24-2.09,20.55-.41,1.83-.84,3.72-1.23,5.6-.04.21-.07.43-.08.65-.17,4.35,1.29,8.26,4.21,11.29,3.19,3.31,7.8,5.21,12.66,5.21,7.44,0,13.31-4.31,15.35-11.25,7.64-21.03,5.13-46.69-5.87-59.79-.68-.87-1.32-1.67-1.94-2.39,2.38-5.14,2.32-10.61-.26-15.37-2.46-4.54-6.87-7.76-11.76-8.76,4.93-2.76,7.81-8.07,8.27-13.34.63-7.18-3.31-15.73-13.44-17.52-8.35-1.4-17.18-2.11-26.29-2.11-2.48,0-5.02.05-7.57.16-2.74-5.08-8.05-8.22-14.27-8.22h0ZM852.71,855.33c2.85-.16,5.65-.24,8.36-.24,7.16,0,14.11.55,20.65,1.65-2.01,1.15-3.81,2.78-5.31,4.83-7.35-2.23-15.59-3.41-24.04-3.44.12-.93.23-1.86.35-2.8h0ZM848.56,891.24c1.13-.07,2.28-.11,3.46-.11,1.07,0,2.15.03,3.22.09-2.31,2.5-4.75,5.04-7.25,7.54.16-2.44.35-4.94.57-7.52h0Z"
             id="path8" />
        </g>
        <g
           id="g10">
          <path
             class="af"
             d="M703.98,953.33c-35.21,0-57.67-23.28-59.04-45.78,0-.04,0-.07,0-.11-.03-4.33,1.36-8.03,4.01-10.71,2.61-2.63,6.25-4.08,10.24-4.08,6.83,0,14.55,4.49,15.37,14.35,1.57,13.96,18.03,16.9,31.56,16.9h0c18.11,0,35.54-5.11,38.05-7.26.08-.07.17-.14.27-.19,2.27-1.37,4.86-2.1,7.5-2.1,5.07,0,9.69,2.57,12.35,6.88.04.06.07.11.1.17,2.57,5.26,2.63,10.06.18,14.26-5.66,9.71-25,15.64-57.48,17.62-1.08.04-2.1.06-3.1.06h0Z"
             id="path9" />
          <path
             class="af"
             d="M659.19,894.65c6.25,0,12.68,4.22,13.37,12.52,1.63,14.42,17.18,18.73,33.56,18.73,17.59,0,36.13-4.98,39.36-7.75,2.02-1.23,4.25-1.81,6.46-1.81,4.19,0,8.28,2.11,10.65,5.93,10.33,21.18-26.91,27.25-55.62,29-1.01.04-2,.05-2.98.05-35.86,0-55.82-23.76-57.05-43.91-.06-8.56,6-12.78,12.25-12.78M659.19,890.65c-4.52,0-8.66,1.66-11.65,4.67-3.04,3.06-4.63,7.26-4.6,12.13,0,.07,0,.14,0,.21.71,11.7,6.87,23.47,16.89,32.27,7.99,7.02,22.14,15.39,44.15,15.39,1.03,0,2.08-.02,3.13-.06.03,0,.07,0,.1,0,33.65-2.05,52.98-8.14,59.08-18.6,1.93-3.31,3.48-8.8-.11-16.14-.06-.12-.12-.24-.19-.35-3.03-4.9-8.28-7.83-14.05-7.83-3.01,0-5.96.83-8.54,2.39-.19.11-.36.24-.53.38-2.46,1.95-19.8,6.78-36.75,6.78-12.7,0-28.13-2.63-29.58-15.13-.91-10.58-9.41-16.12-17.35-16.12h0Z"
             id="path10" />
        </g>
        <g
           id="g12">
          <path
             class="af"
             d="M738.97,881.99c-3.65,0-7.32-1.62-10.06-4.46-2.73-2.81-4.22-6.48-4.11-10.07,0-.05,0-.09,0-.14.28-2.73,1.14-5.4,1.97-7.98,1.05-3.26,2.13-6.62,2.12-10.27-1.75-.38-4.87-.84-9.71-.84-8.75,0-23.48,1.49-43.98,8.57-1.53.53-3.13.8-4.74.8h0c-6.18,0-11.68-3.93-13.7-9.77-1.26-3.55-1.02-7.59.67-11.06,1.7-3.52,4.66-6.14,8.31-7.38,19.32-6.68,37.7-10.21,53.16-10.21,17.33,0,29.73,4.63,34.92,13.03,5.78,9.86,5.14,29.77-1.3,41.01-3.29,5.74-7.76,8.77-12.94,8.77h-.27c-.11,0-.22,0-.33,0Z"
             id="path11" />
          <path
             class="af"
             d="M718.89,821.18c16.22,0,28.26,4.05,33.22,12.08,7.7,13.13,3.23,46.73-12.54,46.73-.09,0-.19,0-.29,0-.11,0-.21,0-.31,0-6.54,0-12.38-6.08-12.18-12.47.65-6.31,4.67-12.36,4.03-20.02-2.24-.7-6.17-1.28-11.64-1.28-9.98,0-25.13,1.94-44.64,8.68-1.35.47-2.73.69-4.08.69-5.18,0-10.02-3.25-11.81-8.42-2.25-6.35,1.15-13.66,7.73-15.9,19.53-6.75,37.76-10.1,52.51-10.1M718.89,817.18c-15.68,0-34.29,3.57-53.82,10.32-4.15,1.41-7.51,4.39-9.45,8.4-1.92,3.95-2.19,8.55-.75,12.62,2.29,6.62,8.55,11.09,15.58,11.09,1.83,0,3.65-.31,5.39-.91,20.24-7,34.74-8.47,43.33-8.47,3.41,0,5.92.24,7.64.5-.25,2.71-1.08,5.3-1.95,8.01-.86,2.68-1.75,5.45-2.06,8.39,0,.09-.02.19-.02.28-.13,4.13,1.58,8.33,4.68,11.53,3.12,3.22,7.31,5.06,11.5,5.06.11,0,.21,0,.32,0,.09,0,.19,0,.28,0,4.14,0,10.04-1.7,14.68-9.78,6.86-11.96,7.48-32.45,1.31-42.97-.02-.03-.03-.05-.05-.08-5.65-9.15-18.31-13.98-36.62-13.98h0Z"
             id="path12" />
        </g>
        <g
           id="g14">
          <path
             class="af"
             d="M520.93,962.46c-4.27,0-8.44-2.93-10.15-7.13-1.56-3.83-.66-7.9,2.41-10.88,1.84-1.85,3.74-3.83,5.65-5.9l-6.43-2.82c-2.25,3.17-5.57,4.96-9.33,4.96-4.51,0-9-2.62-11.17-6.52-2.07-3.71-1.86-7.93.58-11.88l9.39-14.63c-.11,0-.23,0-.34,0-5.2,0-9.98-3.2-11.92-7.96-1.82-4.48-.67-9.32,3.06-12.94.08-.08.16-.15.25-.21,5.08-3.54,10.82-4.04,16.36-4.54,1.8-.16,3.66-.32,5.5-.59l.47-5.3c-1.68.21-3.37.44-5.01.67-2.83.39-5.76.8-8.66,1.08-.03,0-.07,0-.1,0-.16,0-.31.01-.47.01-4.61,0-8.66-2.85-10.57-7.44-1.91-4.57-1.08-9.44,2.16-12.72.04-.04.08-.08.12-.11,1.84-1.58,3.9-2.63,6.1-3.35-2.12-1.25-3.92-3.07-5.06-5.28-1.96-3.81-1.59-8.09,1.02-11.76l21.28-30.83c.46-.67.99-1.29,1.57-1.85,2.24-2.22,4.99-3.4,7.93-3.4,4.69,0,9.39,3.17,11.42,7.72,1.33,2.97,1.38,6.06.21,8.87,15.48-.77,31.87-1.45,48.06-1.45,13.49,0,25.66.46,37.19,1.39.12,0,.23.03.35.06,8.59,2.26,10.93,8.5,10.33,13.15-.68,5.23-5.34,10.87-13.98,10.87-1.01,0-2.05-.08-3.1-.24l.25,5.8c5.03.24,9.16.55,13.19.99,4.52.34,8.36,3.42,9.95,8.02,1.6,4.64.48,9.45-2.93,12.55-3.02,2.98-6.75,3.33-9.29,3.33h0c-1.96,0-3.94-.25-5.87-.48-1.4-.17-2.74-.34-4.02-.41l.25,5.7c.31,0,.62-.01.93-.02,1.04-.02,2.12-.04,3.21-.04,5.4,0,18.03,0,18.05,12.43-.27,9.32-7.7,11.33-12.78,11.76,5.48,1.83,8.31,6.09,8.31,10.3,0,5.02-4.06,10.42-12.97,10.42-.82,0-1.66-.05-2.53-.14l-.03,2.6c5.47.05,12.26.12,15.99,4.05,1.79,1.89,2.63,4.44,2.49,7.56-.79,9.75-10.02,9.75-13.05,9.75-1.75,0-3.47-.12-5.14-.23-.13,0-.25-.02-.38-.03.1,4.48-.4,9.46-3.38,12.62-1.8,1.91-4.25,2.88-7.29,2.88-3.11,0-5.59-1.02-7.4-2.99-2.37-2.59-3.41-6.73-3.17-12.62-12.29.32-24.02,1.39-34.92,3.18-.08.01-.16.02-.24.02-.15,0-.29,0-.43,0-3.39,0-6.5-1.83-8.36-4.81-1.53,3.38-5.05,5.62-9.08,5.62-2.14,0-4.3-.59-6.44-1.75-3.47,3.95-7.06,7.79-10.95,11.69-1.99,2.06-4.45,3.15-7.1,3.15ZM551.07,932.3c.91.67,1.65,1.39,2.24,2.14.5-1.45,1.34-2.77,2.49-3.84,3-2.9,7.11-3.37,10.74-3.77.76-.08,1.49-.17,2.2-.27l.33-2.04c-.26.02-.53.03-.79.03-4.48,0-8.61-2.85-10.28-7.1-1.59-4.04-.6-8.26,2.65-11.28.13-.12.27-.22.43-.3,6.8-3.59,13.83-3.94,24.48-4.45,1.09-.05,2.22-.11,3.38-.17-13.84.29-28.09.84-41.12,1.58,3.75,1.62,6.5,4.09,8.07,7.32,2.92,6.02,1.2,13.83-4.82,22.15ZM588.29,924.75c1.58-.09,3.19-.17,4.8-.23,1.88-.08,3.79-.14,5.69-.2l.03-2.77c-3.29.16-6.67.37-10.09.64l-.42,2.56ZM531.58,923.39c.4-.53.8-1.08,1.2-1.65-1.53.04-3.03.13-4.42.23l3.23,1.41ZM534.03,879.66c2.88-.21,5.86-.4,8.91-.59l.34-5.8c-2.9.24-5.83.5-8.74.78l-.5,5.61ZM562.02,878.09c2.73-.12,5.49-.22,8.27-.32l-.06-6.22c-2.59.12-5.22.25-7.85.4l-.36,6.14ZM589.29,877.24c1.57-.03,3.13-.06,4.7-.08,1.53-.02,3.05-.05,4.57-.06l-.27-6.18c-.41,0-.81,0-1.23,0-2.55,0-5.18.02-7.84.06l.06,6.27ZM514.53,850.88c-.35.52-.72,1-1.11,1.44,1.39-.12,2.74-.26,4.03-.48l.53-5.95-2.53,3.66c-.34.49-.65.94-.96,1.31l.04.03ZM536.71,849.73c1.14-.1,2.28-.2,3.41-.3,1.52-.13,3.05-.25,4.56-.37l.45-7.73c-2.6.12-5.19.26-7.71.41l-.72,8ZM563.79,847.81c2.06-.11,4.14-.21,6.21-.3l-.07-6.99c-.81.01-1.61.03-2.43.05-1.1.02-2.2.05-3.3.07l-.42,7.16ZM589,846.96c2.53-.03,5.89-.05,8.26-.06l-.28-6.43c-2.28-.03-5.6-.07-8.04-.09l.06,6.58Z"
             id="path13" />
          <path
             class="af"
             d="M525.56,803.16c7.51,0,14.32,9.58,7.9,16.78,17.22-.88,34.52-1.64,51.8-1.64,12.36,0,24.72.39,37.03,1.39,13.98,3.69,10.48,20.08-3.14,20.08-1.6,0-3.34-.23-5.21-.73l.44,10.2c5.08.22,9.9.52,14.9,1.06,8.24.63,11.89,11.62,5.89,17.11-2.23,2.2-5,2.8-7.94,2.8-3.64,0-7.55-.93-11.08-.93-.3,0-.6,0-.9.02l.42,9.73s.08,0,.12,0c1.81,0,3.85-.07,5.93-.07,7.69,0,16.04,1,16.05,10.43-.25,8.41-7.36,9.88-14.25,9.88-1.9,0-3.77-.11-5.49-.22l-.03,3.34c1-.12,1.95-.17,2.85-.17,16.12,0,16.56,17.65,1.48,17.65-1.37,0-2.88-.15-4.5-.47l-.07,6.9c7.22.16,18.97-.72,18.5,9.55-.54,6.62-5.64,7.84-11.06,7.84-2.63,0-5.33-.29-7.61-.39.39,6.45.07,15.63-8.57,15.63-8.68-.03-9-9.16-8.43-15.65-12.53.23-25.05,1.23-37.38,3.26-.12,0-.23,0-.34,0-7.06,0-10.92-9.63-5.7-14.48,3.45-3.34,8.79-2.88,13.32-3.77l1.04-6.33c-1.11.4-2.19.58-3.23.58-7.4,0-12.38-9.22-6.26-14.91,9.14-4.83,19.3-3.45,38.97-5.21l.03-3.37c-24.61.24-50.11,1.36-69.3,2.82-.02.03-.55.86-.57.89,1.44-.12,2.83-.18,4.16-.18,19.48,0,26.55,12.91,12.84,30.25,8.93,4.57,5.11,14.51-2.73,14.51-2.06,0-4.39-.69-6.84-2.33-3.9,4.51-7.84,8.73-11.97,12.86-1.75,1.81-3.74,2.57-5.68,2.57-6.54,0-12.45-8.65-6.35-14.58,2.6-2.61,5.14-5.3,7.61-8.04l-10.58-4.64c-2.05,3.89-5.3,5.49-8.54,5.49-6.94,0-13.85-7.33-8.89-15.35l11.99-18.67c-1.58.68-3.14.99-4.63.99-8.62,0-14.9-10.25-7.47-17.47,6.63-4.61,14.46-3.59,22.58-5.04l.83-9.29c-5.36.56-10.71,1.52-16.07,2.03-.13,0-.26,0-.38,0-8.15,0-12.77-10.91-7-16.74,6.6-5.68,17.16-3.79,25.28-5.65l1.13-12.55c-.53.05-1.05.09-1.58.14,0,0-5.98,8.67-5.98,8.67-2.04,3.05-4.85,4.31-7.66,4.31-7.11,0-14.2-8.09-8.8-15.67l21.3-30.86c.39-.57.83-1.08,1.31-1.54,2.02-2,4.31-2.85,6.54-2.85M587.02,848.98c2.68-.03,8.13-.08,11.1-.08.48,0,.9,0,1.23,0l-.45-10.41c-3.29-.04-8.97-.12-11.71-.12-.09,0-.18,0-.26,0l.1,10.6M561.67,849.92c3.47-.19,6.92-.36,10.36-.5l-.1-10.94c-1.47.02-2.95.05-4.45.08-1.71.03-3.42.07-5.15.12l-.66,11.23M534.5,851.94c1.94-.18,3.87-.35,5.79-.51,2.1-.18,4.21-.35,6.29-.51l.68-11.69c-3.9.17-7.81.38-11.68.61l-1.08,12.1M587.31,879.28c2.24-.05,4.48-.09,6.71-.13,2.22-.04,4.43-.06,6.63-.09l-.44-10.15c-1.03,0-2.08,0-3.14,0-3.17,0-6.46.03-9.86.09l.1,10.28M559.9,880.18c4.08-.18,8.23-.34,12.42-.49l-.1-10.24c-3.82.16-7.74.36-11.73.59l-.59,10.13M531.82,881.82c4.13-.31,8.48-.6,13-.86l.58-9.87c-4.2.33-8.44.71-12.72,1.12l-.86,9.61M585.91,926.9c2.41-.15,4.83-.28,7.26-.38,2.51-.1,5.04-.19,7.59-.24l.07-6.81c-4.65.19-9.3.48-13.84.86l-1.08,6.57M532.22,925.86c1.57-2.07,2.95-3.98,4.27-6.11-.69-.02-1.37-.03-2.05-.03-3.09,0-6.15.22-9.29.53-1.48.15-2.98.32-4.51.53l11.58,5.08M525.56,799.16h0c-3.47,0-6.69,1.38-9.33,3.98-.67.65-1.28,1.36-1.81,2.13l-21.28,30.84c-3.04,4.29-3.46,9.33-1.15,13.81.74,1.44,1.73,2.74,2.89,3.86-1.21.63-2.37,1.4-3.46,2.34-.08.07-.16.14-.24.22-3.82,3.86-4.8,9.57-2.58,14.89,2.2,5.26,7.07,8.66,12.42,8.66.18,0,.37,0,.55-.01.07,0,.14,0,.21-.01,2.95-.28,5.9-.69,8.75-1.09.83-.12,1.68-.23,2.52-.35l-.11,1.22c-1.28.15-2.57.26-3.83.38-5.81.52-11.81,1.05-17.33,4.89-.18.12-.35.26-.5.41-4.34,4.21-5.65,9.87-3.52,15.13,1.84,4.54,5.92,7.85,10.66,8.88l-7.61,11.85s-.02.04-.04.06c-2.8,4.53-3.03,9.59-.63,13.9,2.56,4.59,7.63,7.55,12.92,7.55,3.9,0,7.38-1.61,9.94-4.51l2.43,1.07c-1.24,1.31-2.47,2.57-3.68,3.79-3.65,3.56-4.71,8.44-2.84,13.04,2,4.93,6.94,8.38,12,8.38,3.19,0,6.14-1.3,8.53-3.76,3.54-3.55,6.84-7.05,10.01-10.63,1.98.85,3.99,1.29,5.94,1.29,3.72,0,7.08-1.61,9.27-4.21,2.19,2.15,5.08,3.4,8.17,3.4.17,0,.34,0,.52-.01.16,0,.32-.02.47-.05,10.19-1.68,21.11-2.72,32.55-3.1.04,4.13.8,8.69,3.74,11.9,1.51,1.65,4.27,3.63,8.86,3.64,4.51,0,7.25-1.91,8.76-3.51,2.94-3.13,3.8-7.58,3.92-11.85,1.14.07,2.33.12,3.52.12,11.66,0,14.61-6.26,15.04-11.52,0-.05,0-.09,0-.14.17-3.69-.85-6.73-3.03-9.03-2.28-2.41-5.38-3.56-8.66-4.12,5.76-2,8.74-6.74,8.74-11.43,0-3.45-1.55-6.92-4.59-9.44.82-.28,1.59-.61,2.31-1,2.98-1.58,6.56-4.86,6.76-11.51,0-.04,0-.08,0-.12-.01-7.34-4.06-10.78-7.45-12.37-3.87-1.81-8.54-2.06-12.6-2.06-.75,0-1.5,0-2.23.02l-.06-1.47c.55.06,1.11.13,1.68.2,1.98.25,4.03.5,6.11.5,4.5,0,7.99-1.28,10.69-3.9,3.9-3.6,5.24-9.34,3.41-14.63-1.84-5.34-6.31-8.93-11.68-9.36-3.56-.38-7.19-.67-11.43-.9l-.07-1.68c.34.02.67.02,1.01.02,9.84,0,15.17-6.54,15.96-12.61.76-5.89-2.59-12.91-11.8-15.34-.23-.06-.46-.1-.7-.12-11.59-.94-23.8-1.4-37.35-1.4-15.27,0-30.72.6-45.41,1.31.4-2.49.07-5.08-1.04-7.56-2.38-5.32-7.71-8.9-13.25-8.9h0ZM590.98,844.94l-.02-2.54c1.35.01,2.8.03,4.11.05l.11,2.46c-1.35,0-2.82.02-4.19.03h0ZM566.1,842.6c.48-.01.97-.02,1.45-.03.14,0,.27,0,.41,0l.03,3.04c-.69.03-1.38.06-2.07.1l.18-3.1h0ZM539.26,843.63c1.24-.07,2.49-.14,3.75-.2l-.22,3.77c-.94.08-1.89.16-2.84.24-.35.03-.69.06-1.04.09l.35-3.9h0ZM591.25,872.95c1.73-.02,3.45-.03,5.13-.03l.1,2.21c-.84.01-1.68.02-2.52.04-.89.01-1.79.03-2.69.05l-.02-2.26h0ZM564.27,873.85c1.33-.07,2.66-.14,3.98-.2l.02,2.2c-1.38.05-2.76.1-4.13.16l.13-2.16h0ZM536.37,875.88c1.59-.15,3.18-.29,4.77-.43l-.1,1.72c-1.63.1-3.23.21-4.81.32l.14-1.61h0ZM554.12,904.5c1.93-.1,3.87-.19,5.84-.28-.24.14-.46.31-.66.5-.99.92-1.81,1.96-2.44,3.06-.76-1.21-1.67-2.3-2.73-3.28h0ZM556.24,927.7c.98-1.93,1.73-3.83,2.23-5.68,1.21,1.39,2.69,2.51,4.34,3.29-2.24.39-4.51,1.03-6.57,2.39h0Z"
             id="path14" />
        </g>
        <g
           id="g16">
          <path
             class="af"
             d="M467.95,959.04c-8.18,0-17.56-3.98-18.81-12.71-.01-.08-.02-.17-.02-.26-.03-2.39.91-4.67,2.65-6.44,1.86-1.88,4.41-2.97,6.99-2.97,1.59,0,3.14.42,4.5,1.22.1.06.19.12.28.2,1.25,1.06,3.09,1.78,4.79,1.88.79-7.7-.02-18.49-1.97-25.93-1.75-.37-5.03-.72-11.17-.72-12.31,0-30.21,1.45-41.25,2.92-1.03,3.65-3.55,5.78-6.96,5.78-4.04,0-8.69-3.34-10.32-8.16-.07.04-.14.07-.21.11,3.95,13.13,2.84,26.12-3,34.24-3.34,4.64-7.98,7.2-13.05,7.2s-9.94-2.34-14.77-6.8c-1.9,3.51-5.87,5.52-9.55,5.52-2.83,0-5.4-1.1-7.24-3.09-.04-.04-.08-.09-.11-.13-4.72-6.09-3.27-23.01-1.22-41.29.26-2.31.5-4.43.68-6.29-1.31.47-2.71.72-4.13.72-3.16,0-6.11-1.19-8.33-3.36-2.3-2.21-3.6-5.2-3.66-8.41-.06-3.2,1.14-6.24,3.36-8.55,4.46-4.62,11.31-13.96,18.16-25.39-1.5.81-3.18,1.25-4.87,1.25-4.56,0-8.29-3.07-9.99-8.22-.03-.09-.05-.18-.07-.27-1.5-8.26-.46-14.4,3.16-18.77,5.82-7.02,17.56-7.94,28.43-8.07.91-2.53,1.69-4.92,2.31-7.14.01-.04.02-.08.04-.12,1.89-5.38,6.01-8.59,11.03-8.59,4.35,0,8.62,2.45,10.9,6.24,1.83,3.04,2.2,6.52,1.12,10.03,6.39.51,11.15,2.83,14.16,6.93,5.42,7.37,2.89,17.35,1.99,20.23-.01.05-.03.09-.05.14-1.81,4.56-5.31,7.18-9.6,7.18-3.6,0-7.11-1.93-9.16-5.04-1.69-2.56-2.21-5.55-1.54-8.61-1.14-.1-2.43-.18-3.88-.24-3.28,7.23-7.14,14.68-11.49,22.18,1.53,1,2.74,2.31,3.54,3.83,1.29-.25,2.62-.38,3.97-.38,8.33,0,15.73,4.75,19.22,8.1,1.88-2.18,4.3-4.57,7.63-5.11.89-8.09,1.44-14.75,1.88-20.17,2.05-25.03,2.83-26.86,23.73-30-2.17-2.58-3.42-5.89-3.42-9.33.04-9.36,7.33-14.26,14.5-14.26s14.46,4.9,14.5,14.25c0,3.04-.96,5.97-2.67,8.39,6.75.44,12.6,1.59,16.69,5.62.03.03.06.06.09.09,8.35,9.35,7.21,31.61,6.46,46.34l-.1,1.89c-.05,1.06-.93,1.9-2,1.9h0c-2.05,0-4.11-.04-6.29-.07-2.73-.04-5.55-.08-8.8-.08-7.27,0-17.91.19-36.08,1.63-.02.2-.03.4-.05.59,10.96-.59,27.59-1.17,40.79-1.17,3.48,0,6.59.04,9.25.12,4.39.07,6.68,3.59,6.65,7.03-.03,3.47-2.35,6.98-6.74,6.98-.12,0-.24,0-.37,0-2.44-.07-5.37-.11-8.66-.11-13.21,0-30.96.63-41.97,1.25l-.06.85c6.02-.69,14.58-1.11,22.71-1.11,24.45,0,28.16,3.47,29.1,5.11,5.91,5.37,6.93,17.94,7.54,25.5.09,1.11.17,2.07.25,2.83.73,4.62.04,22.37-4.39,25.45-3.22,3.56-8.82,5.68-15.06,5.68h0ZM430.6,860.84c12.31-.98,24.38-1.3,33.08-1.37,0-.33,0-.65-.01-.98,0-.3-.01-.6-.02-.9-2.05-.05-3.98-.08-5.85-.08-7.65,0-15.1.4-27.01,1.48-.06.61-.12,1.22-.18,1.84ZM359.48,846.05c.07.55.11,1.09.12,1.62.31-.58.61-1.16.92-1.74-.36.04-.71.08-1.04.12ZM432.42,844.76c10.64-.92,17.94-1.28,25.46-1.28,1.47,0,2.96.01,4.51.04-.09-.43-.19-.85-.31-1.26-2.62-.53-5.95-.8-9.9-.8-7.29,0-14.9.92-19.54,1.86-.05.31-.2,1.26-.22,1.44Z"
             id="path15" />
          <path
             class="af"
             d="M447.14,802.11c6.23,0,12.46,4.09,12.5,12.26,0,4.1-1.97,7.84-5.25,10.17,8.91.3,15.59,1.05,19.87,5.25,8.17,9.15,6.53,33.2,5.86,46.8-4.59-.01-9.19-.16-15.09-.16-8.6,0-19.93.31-37.94,1.77-.12,1.51-.24,3.04-.36,4.58,10.53-.61,28.7-1.3,42.97-1.3,3.32,0,6.43.04,9.19.12,6.4.1,6.18,10-.03,10-.09,0-.18,0-.28,0-2.61-.08-5.57-.12-8.75-.12-14.62,0-33.81.75-43.84,1.36-.12,1.68-.23,3.36-.35,5.03,5.57-.81,15.3-1.41,24.88-1.41,13.13,0,25.98,1.12,27.5,4.36,6.47,5.43,6.8,21.81,7.41,27.34,1,6.1-.72,22.54-3.7,23.62-2.98,3.49-8.35,5.24-13.77,5.24-7.83,0-15.78-3.65-16.83-10.99-.06-4.19,3.74-7.38,7.64-7.38,1.19,0,2.38.29,3.48.94,1.71,1.45,4.22,2.37,6.51,2.37.46,0,.92-.04,1.35-.12,1.24-8.71.18-21.5-2.14-29.46-2.35-.77-7.01-1.08-12.79-1.08-13.2,0-32.25,1.63-42.91,3.12-.62,3.96-2.82,5.57-5.31,5.57-3.92,0-8.57-4.01-8.9-9.2-.91.53-2.32,1.3-4.06,2.11,7.37,22.09-.88,40.48-13.62,40.48-4.79,0-10.21-2.59-15.68-8.55-.44,4.44-4.57,7.27-8.64,7.27-2.11,0-4.21-.76-5.77-2.45-5.98-7.71-.43-39.09.19-49.96-1.83,1.54-4.13,2.32-6.44,2.32-2.51,0-5.02-.92-6.93-2.79-3.98-3.83-4.09-10.17-.25-14.14,6.97-7.23,18.29-23.97,27.09-41.48-2.79.2-5.18.45-6.86.75,2.18,7.75-3.08,13.2-8.39,13.2-3.24,0-6.51-2.04-8.09-6.85-3.97-21.96,11.53-24.37,31.02-24.5,1.1-2.94,2.06-5.82,2.84-8.58,1.81-5.14,5.46-7.26,9.14-7.26,6.84,0,13.77,7.32,9.07,16.16.06,0,.12,0,.17,0,19.09,0,20.02,15.09,17.02,24.67-1.66,4.18-4.7,5.92-7.74,5.92-5.62,0-11.23-5.94-8.05-13.37-1.99-.28-4.71-.46-7.79-.57-3.82,8.58-8.22,16.93-12.99,25.02,2.57,1.05,4.44,2.99,5.12,5.39,1.74-.51,3.47-.73,5.18-.73,9.28,0,17.55,6.57,19.26,9.16,2.17-2.57,4.88-6.27,8.96-6.27.14,0,.28,0,.42.01,5.46-48.18-1.34-46.39,28.42-50.73-3.72-2.24-6.03-6.27-6.03-10.68.04-8.17,6.27-12.26,12.5-12.26M430.1,846.97c11.58-1.04,19.55-1.49,27.78-1.49,2.25,0,4.52.03,6.89.1-.27-1.73-.52-3.42-1.18-5.03-3.16-.78-7.19-1.09-11.42-1.09-7.95,0-16.58,1.1-21.28,2.19-.14.74-.26,1.51-.38,2.29-.14.93-.28,1.91-.42,3.03M428.38,863.03c14.42-1.25,28.87-1.54,37.3-1.58,0-1.01,0-2.01-.02-2.99-.02-.95-.04-1.89-.07-2.81-2.71-.09-5.27-.13-7.8-.13-8.36,0-16.41.49-28.84,1.64-.19,1.93-.38,3.89-.57,5.87M365.62,918.25c.12-.02.24-.04.37-.06.3-2.28.94-3.94,1.37-4.83-.43-.27-.84-.56-1.24-.85-.19,1.93-.35,3.84-.49,5.74M447.13,798.11c-8.16,0-16.45,5.58-16.5,16.24,0,2.77.7,5.47,1.99,7.84-8.49,1.34-13.29,2.63-16.66,6.5-1.18,1.36-2.06,2.92-2.75,4.79-.51-1.1-1.11-2.13-1.81-3.08-2.16-2.94-6.15-6.34-13.35-7.47.48-3.27-.13-6.5-1.83-9.33-2.63-4.38-7.58-7.21-12.61-7.21-5.9,0-10.73,3.71-12.91,9.93-.03.08-.05.16-.08.25-.5,1.79-1.11,3.69-1.8,5.7-10.92.21-22.45,1.43-28.55,8.77-4.02,4.85-5.2,11.52-3.59,20.4.03.18.08.36.14.54,1.98,6.01,6.42,9.6,11.89,9.6.18,0,.36,0,.54-.01-5.85,9.32-11.46,16.81-15.27,20.77-2.6,2.69-3.99,6.23-3.92,9.97.07,3.74,1.59,7.23,4.28,9.82,2.57,2.52,6.02,3.91,9.7,3.91.62,0,1.24-.04,1.85-.12-.12,1.09-.25,2.25-.39,3.46-2.18,19.43-3.57,36.05,1.62,42.74.07.09.15.18.23.27,2.23,2.41,5.32,3.73,8.71,3.73,3.95,0,7.56-1.78,9.91-4.55,5.77,4.72,10.88,5.84,14.41,5.84,5.73,0,10.95-2.85,14.68-8.03,4.93-6.84,6.71-16.88,5.16-27.61,2.02,1.41,4.36,2.25,6.75,2.25,3.16,0,6.75-1.62,8.46-5.96,11.03-1.4,27.97-2.74,39.75-2.74,4.9,0,7.82.23,9.54.47,1.51,6.43,2.2,14.95,1.79,21.74-.64-.25-1.23-.58-1.69-.97-.17-.15-.36-.28-.55-.39-1.66-.98-3.57-1.5-5.51-1.5-3.12,0-6.18,1.3-8.42,3.56-2.12,2.15-3.27,4.94-3.23,7.87,0,.17.02.34.04.51,1.22,8.49,9.76,14.42,20.79,14.42,6.64,0,12.65-2.25,16.28-6.05,1.83-1.21,3.66-4.16,4.8-12.59.75-5.58.89-11.35.36-14.76-.08-.71-.15-1.65-.24-2.72-.81-10.06-2.18-21.19-8.03-26.68-.74-1.06-1.87-1.94-3.46-2.66.26,0,.52.01.77.02.14,0,.28,0,.42,0,4.94,0,8.7-3.85,8.74-8.96.03-3.39-1.62-6.24-4.19-7.79.41-.59.66-1.3.7-2.07l.1-1.88c.77-15.06,1.94-37.81-6.96-47.78-.06-.06-.12-.13-.18-.19-3.84-3.77-9.05-5.25-14.83-5.9.92-2.07,1.41-4.34,1.41-6.66-.05-10.68-8.34-16.26-16.5-16.26h0ZM378.69,866.9c3.78-6.62,7.18-13.18,10.13-19.59.13,0,.25.01.37.02-.14,2.8.57,5.52,2.12,7.87,2.42,3.66,6.57,5.94,10.83,5.94,2.97,0,5.66-1.08,7.81-3.02-.35,4.11-.77,8.8-1.34,14.14-2.43.76-4.36,2.31-5.93,3.91-4.25-3.5-11.32-7.29-19.08-7.29-1,0-1.99.06-2.97.19-.55-.79-1.2-1.51-1.94-2.17h0Z"
             id="path16" />
        </g>
        <g
           id="g18">
          <path
             class="af"
             d="M459.4,934.18c-6.64,0-10.12-5.28-10.12-10.5,0-2.7.89-5.24,2.51-7.14,1.87-2.2,4.5-3.36,7.61-3.36h.3c6.64,0,10.12,5.28,10.12,10.5s-3.48,10.5-10.12,10.5h-.31Z"
             id="path17" />
          <path
             class="af"
             d="M459.71,915.18c10.82,0,10.83,17,0,17-.05,0-.1,0-.15,0-.05,0-.1,0-.15,0-10.82,0-10.82-17,0-17,.05,0,.1,0,.15,0,.05,0,.1,0,.15,0M459.71,911.18h-.15s-.15,0-.15,0c-7.96,0-12.12,6.29-12.12,12.5,0,3.17,1.06,6.17,2.98,8.43,2.23,2.62,5.47,4.07,9.14,4.07h.15s.15,0,.15,0c7.96,0,12.12-6.29,12.12-12.5,0-6.21-4.16-12.5-12.12-12.5h0Z"
             id="path18" />
        </g>
        <g
           id="g20">
          <path
             class="af"
             d="M445.16,945.66c-.49,0-.97-.18-1.33-.51-6.09-5.45-9.99-22.62-2.96-31.9.33-.43.82-.72,1.37-.78.08,0,.15-.01.23-.01.46,0,.92.16,1.28.46,8.3,6.9,8.64,23.27,3.1,31.83-.32.49-.83.82-1.41.9-.09.01-.18.02-.27.02Z"
             id="path19" />
          <path
             class="af"
             d="M442.45,914.46c7.25,6.02,8.01,21.01,2.7,29.2-5.54-4.96-9-20.89-2.7-29.2M442.45,910.46c-.15,0-.3,0-.46.03-1.09.12-2.07.69-2.73,1.56-7.76,10.25-3.54,28.54,3.22,34.6.74.66,1.69,1.02,2.67,1.02.18,0,.35-.01.53-.04,1.16-.16,2.19-.81,2.83-1.79,6.01-9.29,5.79-26.72-3.5-34.45-.72-.6-1.63-.92-2.56-.92h0Z"
             id="path20" />
        </g>
        <g
           id="g22">
          <path
             class="af"
             d="M430.66,950.97c-.56,0-1.09-.23-1.47-.64-7.22-7.83-8.75-27.67-.36-36.48.39-.41.92-.62,1.45-.62.48,0,.96.17,1.34.52,3.34,3.03,6.1,8.4,6.7,13.06.18,1.14.27,2.35.26,3.56.72,5.5-4.77,17.95-6.19,19.71-.46.56-1.01.86-1.65.89-.03,0-.06,0-.09,0Z"
             id="path21" />
          <path
             class="af"
             d="M430.28,915.23c2.91,2.64,5.51,7.6,6.07,11.83.17,1.08.26,2.23.25,3.44.79,4.95-5.23,18.43-5.93,18.46-6.8-7.37-7.91-25.83-.38-33.74M430.28,911.23c-1.06,0-2.11.42-2.9,1.24-9.2,9.67-7.59,30.63.34,39.21.76.82,1.83,1.29,2.94,1.29.06,0,.13,0,.19,0,.84-.04,2.07-.36,3.11-1.63,1.61-1.98,7.33-14.79,6.64-21.08,0-1.26-.1-2.52-.29-3.75-.68-5.07-3.69-10.92-7.34-14.23-.77-.7-1.73-1.04-2.69-1.04h0Z"
             id="path22" />
        </g>
        <g
           id="g24">
          <path
             class="af"
             d="M412.42,954.76c-.12,0-.23,0-.35-.03-.56-.1-1.06-.44-1.36-.92-5.48-8.92-8.22-27.48,3.29-38.98.38-.38.89-.58,1.41-.58.05,0,.1,0,.15,0,.58.04,1.11.34,1.46.8.1.13,2.33,3.17,3.9,8.02,4.95,10.02-2.75,27.68-7.26,31.25-.36.28-.79.43-1.24.43Z"
             id="path23" />
          <path
             class="af"
             d="M415.42,916.24s2.16,2.91,3.65,7.59c4.45,8.72-2.58,25.7-6.65,28.93-4.93-8.03-7.83-25.71,3-36.52M415.42,912.24c-1.06,0-2.07.42-2.83,1.17-12.28,12.26-9.4,31.98-3.58,41.44.6.97,1.59,1.65,2.71,1.85.23.04.46.06.7.06.9,0,1.77-.3,2.49-.87,4.97-3.94,13.18-22.53,7.88-33.57-1.64-5-3.89-8.12-4.15-8.46-.69-.93-1.76-1.52-2.92-1.61-.1,0-.2-.01-.3-.01h0Z"
             id="path24" />
        </g>
      </g>
    </g>
    <g
       id="d"
       data-name="Name">
      <g
         id="e"
         data-name="こあら">
        <g
           id="f"
           data-name="ら">
          <g
             id="g26">
            <path
               class="af"
               d="M939.72,845.1c2.03,0,4.09.5,6,1.54,6.05,3.32,8.27,10.92,4.95,16.97l-.88,1.6c-.91,1.66-2.38,4.33-3.89,7.23,16.45-7,30.58-11.06,43-12.39,3-.32,5.83-.47,8.53-.47,22.89,0,35.19,10.81,41.6,20.47,6.08,9.16,8.06,19.29,5.72,29.3-4.89,20.92-26.86,34.17-29.35,35.61-1.97,1.14-4.13,1.69-6.26,1.69-4.31,0-8.51-2.23-10.83-6.23-3.46-5.97-1.42-13.62,4.55-17.08,3.88-2.28,15.51-10.86,17.55-19.72.51-2.21.72-5.32-2.21-9.73-4.14-6.24-11.15-9.35-20.96-9.35-11.97,0-28.13,4.64-48.35,13.92-2.95,1.36-9.55,4.38-16.35,4.38-4.46,0-9.01-1.3-12.67-5.24-10.34-11.12-.59-28.83,8.01-44.44l.86-1.56c2.27-4.15,6.55-6.49,10.97-6.49M939.72,843.1v2s0-2,0-2c-5.3,0-10.18,2.89-12.72,7.53l-.86,1.56c-8.93,16.21-19.04,34.58-7.72,46.77,3.62,3.9,8.38,5.88,14.13,5.88,7.24,0,14.21-3.2,17.18-4.56,19.87-9.12,35.86-13.74,47.51-13.74,9.2,0,15.51,2.77,19.3,8.46,2.49,3.75,2.37,6.24,1.93,8.18-1.74,7.56-11.95,15.69-16.62,18.44-6.91,4-9.27,12.89-5.26,19.81,2.59,4.46,7.4,7.23,12.56,7.23,2.54,0,5.05-.68,7.26-1.96,2.57-1.49,25.21-15.15,30.29-36.89,2.47-10.56.39-21.23-6-30.86-6.47-9.75-19.23-21.36-43.27-21.36-2.81,0-5.75.16-8.74.48-11.34,1.21-23.94,4.62-38.41,10.4.49-.89.92-1.67,1.26-2.3l.88-1.6c3.85-7.01,1.27-15.84-5.74-19.69-2.13-1.17-4.54-1.79-6.96-1.79h0Z"
               id="path25" />
            <path
               class="af"
               d="M960.06,819.16c5.69,0,12.77.59,21.53,2.16,35.31,6.33,37.78,19.78,37.78,19.78,0,0-2.45,6.48-21.23,6.48-5.9,0-13.41-.64-22.96-2.32-39.97-7.03-36.87-20.67-36.87-20.67,0,0,4.51-5.42,21.76-5.42M960.06,817.16c-17.68,0-22.77,5.52-23.3,6.15l-.31.37-.11.47c-.07.32-.63,3.22,1.88,6.99,3.32,4.99,12.36,11.83,36.59,16.09,8.86,1.56,16.71,2.35,23.31,2.35,19.6,0,22.8-6.97,23.11-7.77l.2-.52-.1-.55c-.11-.6-3.14-14.89-39.39-21.39-8.11-1.45-15.47-2.19-21.88-2.19h0Z"
               id="path26" />
          </g>
          <path
             class="aj"
             d="M1009.15,946.65c-4.31,0-8.51-2.23-10.83-6.23-3.46-5.97-1.42-13.62,4.55-17.08,3.88-2.28,15.51-10.86,17.55-19.72.51-2.21.72-5.32-2.21-9.73-9.2-13.85-32.52-12.32-69.31,4.56-4.89,2.25-19.78,9.08-29.01-.86-10.34-11.12-.59-28.83,8.01-44.44l.86-1.56c3.32-6.05,10.92-8.27,16.97-4.95,6.05,3.32,8.27,10.92,4.95,16.97l-.88,1.6c-.91,1.66-2.38,4.33-3.89,7.23,16.45-7,30.58-11.06,43-12.39,28.44-3.03,42.96,9.2,50.13,20,6.08,9.16,8.06,19.29,5.72,29.3-4.89,20.92-26.86,34.17-29.35,35.61-1.97,1.14-4.13,1.69-6.26,1.69Z"
             id="path27" />
          <path
             class="ai"
             d="M938.3,824.59s7.98-9.59,43.29-3.26,37.78,19.78,37.78,19.78c0,0-4.23,11.18-44.2,4.16s-36.87-20.67-36.87-20.67Z"
             id="path28" />
        </g>
        <g
           id="g"
           data-name="あ">
          <path
             class="ah"
             d="M901.61,881.11c-1.14-1.52-2.37-2.98-3.7-4.36.68-1.42,1.27-2.81,1.77-4.16,2.38-6.48-.94-13.66-7.42-16.04-6.27-2.3-13.2.73-15.8,6.8-8.37-2.95-17.9-4.41-28.13-4.2-.73.01-1.47.04-2.2.08.02-.16.04-.31.06-.47,1.18-9.4,2.4-19.13,3.53-30.15.7-6.87-4.29-13.01-11.16-13.71-6.85-.71-13.01,4.29-13.71,11.16-1.1,10.74-2.31,20.32-3.47,29.58-.39,3.12-.78,6.19-1.15,9.23-11.96,4.67-22.71,11.96-30.31,20.99-8.74,10.39-12.43,21.99-10.68,33.47,1.73,11.91,8.27,20.99,18.41,25.56,4.95,2.23,10.22,3.18,15.44,3.18,2.47,0,4.93-.22,7.33-.61,2.27,3.36,6.1,5.51,10.34,5.51.45,0,.9-.02,1.35-.07,6.86-.74,11.83-6.9,11.09-13.76-.06-.59-.11-1.16-.17-1.74,9.83-7.51,26.95-22.95,40.13-38.85,4.05,7.41,3.98,17.83-.21,31.02-2.09,6.58,1.55,13.61,8.13,15.7,6.59,2.09,13.61-1.55,15.7-8.13,9.05-28.48,2.18-46.19-5.17-56.03ZM820.34,921.78c-4.19,3.95-14.4,4.24-17.8-1.32-4.72-7.71,7.71-27.63,13.58-27.03,6.28.64,10.29,22.62,4.22,28.35ZM841.85,905.64c.19-7.13.68-14.06,1.35-21.06,1.89-.25,3.78-.4,5.64-.44.46,0,.92-.01,1.38-.01,4.04,0,7.87.36,11.43,1.06-6.09,7.03-13.2,14.29-19.8,20.45Z"
             id="path29" />
          <path
             class="aj"
             d="M801.11,856.7c-5.52,0-10.58-3.69-12.07-9.28-1.78-6.67,2.18-13.52,8.85-15.3,33.47-8.94,61.94-11.22,87-6.97,6.81,1.15,11.39,7.61,10.24,14.41-1.15,6.81-7.6,11.39-14.41,10.23-21.46-3.64-46.44-1.52-76.37,6.48-1.08.29-2.17.43-3.23.43Z"
             id="path30" />
          <path
             class="af"
             d="M837.27,814.84c.43,0,.86.02,1.29.07,5.04.52,9.07,3.97,10.57,8.48,3.49-.2,6.92-.3,10.28-.3,8.88,0,17.36.69,25.47,2.06,6.81,1.15,11.39,7.61,10.24,14.41-1.03,6.1-6.32,10.41-12.31,10.41-.69,0-1.4-.06-2.1-.18-6.73-1.14-13.81-1.71-21.28-1.71-3.88,0-7.87.15-11.97.46-.42,3.47-.85,6.86-1.27,10.21-.02.16-.04.31-.06.47.73-.04,1.47-.06,2.2-.08.64-.01,1.27-.02,1.91-.02,9.51,0,18.38,1.46,26.22,4.22,2.01-4.69,6.61-7.57,11.49-7.57,1.43,0,2.89.25,4.31.77,6.48,2.38,9.8,9.56,7.42,16.04-.5,1.35-1.77,4.16-1.77,4.16,0,0,2.56,2.83,3.7,4.36,7.36,9.84,14.22,27.56,5.17,56.03-1.69,5.32-6.61,8.72-11.91,8.72-1.26,0-2.53-.19-3.79-.59-6.58-2.09-10.22-9.12-8.13-15.7,4.19-13.19,4.26-23.61.21-31.02-13.18,15.89-30.3,31.34-40.13,38.85.06.58.11,1.15.17,1.74.74,6.86-4.23,13.03-11.09,13.76-.45.05-.91.07-1.35.07-4.24,0-8.07-2.15-10.34-5.51-2.4.39-4.86.61-7.33.61-5.22,0-10.49-.95-15.44-3.18-10.14-4.58-16.68-13.66-18.41-25.56-1.75-11.48,1.94-23.08,10.68-33.47,7.59-9.02,18.34-16.31,30.31-20.99.37-3.04.76-6.11,1.15-9.23.14-1.15.29-2.31.44-3.47-5.64,1.13-11.45,2.49-17.48,4.1-1.08.29-2.17.43-3.23.43-5.52,0-10.58-3.69-12.07-9.28-1.78-6.67,2.18-13.52,8.85-15.3,9.37-2.5,18.33-4.46,26.95-5.93,0-.05,0-.09.01-.13.66-6.43,6.1-11.23,12.42-11.23M841.85,905.64c6.6-6.16,13.71-13.42,19.8-20.45-3.55-.7-7.39-1.06-11.43-1.06-.46,0-.92,0-1.38.01-1.86.04-3.75.19-5.64.44-.67,7.01-1.16,13.93-1.35,21.06M811.72,924.69c3.32,0,6.64-1.05,8.62-2.92,6.07-5.73,2.06-27.71-4.22-28.35-.09,0-.17-.01-.26-.01-5.97,0-17.97,19.45-13.32,27.05,1.8,2.93,5.48,4.24,9.18,4.24M837.27,812.84h0c-6.98,0-12.86,4.91-14.2,11.64-8.29,1.45-16.93,3.38-25.7,5.72-3.74,1-6.87,3.4-8.81,6.75-1.94,3.35-2.46,7.26-1.46,11,1.69,6.34,7.45,10.76,14,10.76,1.26,0,2.52-.17,3.75-.49,4.93-1.32,9.83-2.49,14.63-3.51l-.09.7c-.34,2.72-.68,5.4-1,8.06-12,4.88-22.62,12.35-30,21.12-9.13,10.84-12.97,22.97-11.13,35.06,1.83,12.59,8.78,22.22,19.56,27.09,4.94,2.23,10.41,3.36,16.26,3.36,2.11,0,4.27-.15,6.45-.45,2.74,3.37,6.85,5.35,11.23,5.35.52,0,1.05-.03,1.57-.08,7.95-.85,13.72-8.02,12.87-15.97-.02-.21-.04-.41-.06-.62,9.98-7.75,25.32-21.8,37.52-36.04,2.44,6.7,1.9,15.66-1.61,26.7-1.17,3.69-.84,7.62.94,11.06,1.78,3.44,4.79,5.98,8.49,7.15,1.43.45,2.91.68,4.4.68,6.34,0,11.89-4.06,13.81-10.11,9.31-29.29,2.16-47.62-5.48-57.84-.76-1.02-2.08-2.54-2.95-3.52.42-.96.99-2.27,1.3-3.11,1.34-3.64,1.17-7.57-.45-11.09-1.63-3.52-4.52-6.19-8.16-7.52-1.61-.59-3.29-.89-5-.89-5.18,0-9.9,2.74-12.49,7.12-7.72-2.5-16.2-3.77-25.22-3.77-.61,0-1.22,0-1.83.02.28-2.21.56-4.45.84-6.72,3.47-.23,6.89-.34,10.19-.34,7.32,0,14.37.57,20.95,1.68.81.14,1.63.21,2.44.21,7.09,0,13.09-5.08,14.28-12.08,1.34-7.88-3.99-15.38-11.87-16.72-8.18-1.39-16.86-2.09-25.8-2.09-2.92,0-5.93.07-8.96.22-2.12-4.64-6.57-7.87-11.7-8.4-.5-.05-1-.08-1.5-.08h0ZM845.04,886.38c1.3-.13,2.59-.21,3.84-.24.45,0,.89-.01,1.34-.01,2.59,0,5.11.15,7.53.46-4.18,4.66-8.89,9.55-13.72,14.22.21-4.58.54-9.35,1.01-14.43h0ZM811.72,922.69c-3.42,0-6.22-1.23-7.47-3.28-1.66-2.72-.48-8.65,2.95-14.77,3.37-6.02,7.2-9.23,8.67-9.23.02,0,.04,0,.06,0,.92.09,2.48,1.88,3.74,5.57,2.27,6.68,2.46,16.37-.69,19.34-1.55,1.46-4.33,2.37-7.25,2.37h0Z"
             id="path31" />
          <path
             class="ae"
             d="M820.34,921.78c-4.19,3.95-14.4,4.24-17.8-1.32-4.72-7.71,7.71-27.63,13.58-27.03,6.28.64,10.29,22.62,4.22,28.35ZM841.85,905.64"
             id="path32" />
          <circle
             class="ae"
             cx="804.49"
             cy="893.41"
             r="3"
             id="circle32" />
          <circle
             class="ae"
             cx="826.35"
             cy="894.89"
             r="3"
             id="circle33" />
        </g>
        <g
           id="h"
           data-name="こ">
          <path
             class="ai"
             d="M705.29,948.28c-6.2,0-12.54-.56-18.78-1.91-32.88-7.13-38-28.35-39.93-36.34-.08-.35-.19-.8-.27-1.1-2.57-5.83-.34-12.77,5.33-15.94,6.02-3.37,13.64-1.23,17.02,4.79,1.21,2.16,1.73,4.31,2.23,6.39,1.42,5.89,3.37,13.96,20.92,17.77,22.86,4.96,48.92-5.11,52-6.78,5.86-3.55,13.5-1.72,17.11,4.12,3.63,5.87,1.81,13.58-4.07,17.2-5.29,3.27-27.35,11.8-51.56,11.8ZM646.84,909.99s0,0,0,.01c0,0,0,0,0-.01Z"
             id="path33" />
          <path
             class="ai"
             d="M737.61,876.99c-2,0-4.03-.48-5.91-1.49-6.08-3.27-8.36-10.85-5.09-16.93,1.26-2.54,2.76-10.08,2.54-14.06-6.34-1.97-26.07-3.04-56.28,7.4-6.52,2.26-13.64-1.21-15.9-7.73-2.25-6.52,1.21-13.64,7.73-15.9,41-14.17,76.26-13.36,85.73,1.98,8.04,13.02.93,35.07-1.8,40.14-2.26,4.2-6.57,6.58-11.02,6.58ZM730.75,845.17h0s0,0,0,0Z"
             id="path34" />
          <path
             class="af"
             d="M657.74,891.39c4.38,0,8.62,2.3,10.92,6.39,1.21,2.16,1.73,4.31,2.23,6.39,1.42,5.89,3.37,13.96,20.92,17.77,4.45.96,9.02,1.36,13.51,1.36,18.62,0,36.01-6.79,38.49-8.14,2.02-1.23,4.26-1.81,6.46-1.81,4.19,0,8.28,2.11,10.65,5.93,3.63,5.87,1.81,13.58-4.07,17.2-5.29,3.27-27.35,11.8-51.56,11.8h-.02c-6.2,0-12.53-.56-18.76-1.91-32.88-7.13-38-28.35-39.93-36.34-.08-.35-.19-.8-.27-1.1-2.57-5.83-.34-12.77,5.33-15.94,1.93-1.08,4.03-1.6,6.1-1.6M646.85,910s0,0,0-.01c0,0,0,0,0,.01M657.74,889.39c-2.47,0-4.91.64-7.08,1.85-6.51,3.65-9.17,11.51-6.25,18.34.07.28.16.63.23.92,2.01,8.32,7.34,30.43,41.45,37.82,5.99,1.3,12.45,1.96,19.19,1.96,25.21,0,47.4-8.87,52.63-12.1,3.3-2.03,5.6-5.23,6.49-9,.89-3.77.26-7.66-1.77-10.96-2.66-4.31-7.28-6.88-12.35-6.88-2.62,0-5.2.72-7.45,2.07-1.98,1.05-19.15,7.88-37.5,7.88-4.66,0-9.06-.44-13.09-1.32-16.33-3.54-18.03-10.61-19.4-16.28-.51-2.11-1.09-4.51-2.43-6.9-2.56-4.57-7.41-7.41-12.66-7.41h0Z"
             id="path35" />
          <path
             class="af"
             d="M717.21,818.18c16.23,0,28.26,4.05,33.22,12.08,8.04,13.02.93,35.07-1.8,40.14-2.26,4.2-6.57,6.58-11.02,6.58-2,0-4.03-.48-5.91-1.49-6.08-3.27-8.36-10.85-5.09-16.93,1.26-2.54,2.76-10.08,2.54-14.06-2.24-.7-6.17-1.28-11.64-1.28-9.98,0-25.12,1.94-44.64,8.68-1.35.47-2.73.69-4.08.69-5.18,0-10.02-3.25-11.81-8.42-2.25-6.52,1.21-13.64,7.73-15.9,19.53-6.75,37.76-10.1,52.51-10.1M730.75,845.17h0s0,0,0,0M717.22,816.18v2-2c-15.46,0-33.85,3.53-53.17,10.21-3.66,1.27-6.61,3.88-8.3,7.36-1.69,3.48-1.93,7.42-.67,11.08,2.02,5.84,7.53,9.77,13.7,9.77,1.61,0,3.2-.27,4.74-.8,20.51-7.09,35.24-8.58,43.98-8.57,4.79,0,7.89.45,9.66.83-.13,3.8-1.33,9.54-2.33,11.59-3.76,7.04-1.11,15.82,5.92,19.6,2.11,1.13,4.48,1.73,6.86,1.73,5.35,0,10.25-2.93,12.78-7.64,3.31-6.16,10.17-28.49,1.74-42.14-5.19-8.4-17.59-13.03-34.91-13.03h0Z"
             id="path36" />
        </g>
      </g>
      <g
         id="i"
         data-name="鶴舞">
        <g
           id="j"
           data-name="舞">
          <path
             class="af"
             d="M524.27,800.23c1.96,0,3.94.57,5.67,1.77,4.55,3.14,5.69,9.37,2.55,13.91l-.71,1.03c17.62-1.09,36.31-1.56,52.3-1.56,16.33,0,29.84.49,36.53,1.31,5.48.67,9.38,5.66,8.71,11.14-.62,5.07-4.94,8.78-9.91,8.78-.41,0-.82-.02-1.23-.08-1.5-.18-3.51-.35-5.91-.5l.44,10.2c5.64.24,10.66.59,14.9,1.06,5.49.6,9.45,5.54,8.85,11.03-.56,5.12-4.89,8.91-9.93,8.91-.37,0-.74-.02-1.11-.06-3.39-.37-7.38-.66-11.85-.88l.42,9.73c4.21.02,8.33.07,12.32.15,5.52.11,9.91,4.68,9.79,10.2-.11,5.45-4.57,9.79-9.99,9.79-.07,0-.14,0-.21,0-3.12-.06-6.31-.11-9.54-.14l-.03,3.34c2.48.09,4.94.22,7.37.41,4.68.37,8.17,4.46,7.81,9.14-.35,4.45-4.07,7.83-8.47,7.83-.22,0-.45,0-.68-.03-2.03-.16-4.11-.27-6.2-.35l-.07,6.9c3.68.1,7.24.26,10.6.49,4.68.32,8.22,4.38,7.9,9.06-.31,4.48-4.04,7.92-8.46,7.92-.2,0-.4,0-.6-.02-3.03-.21-6.26-.36-9.61-.45l-.07,7.22c-.05,4.67-3.84,8.42-8.5,8.42h-.09c-4.69-.05-8.46-3.89-8.41-8.58l.07-7.07c-13.84.32-27.4,1.42-35.69,3.09-.57.11-1.13.17-1.69.17-3.96,0-7.51-2.79-8.32-6.82-.93-4.6,2.05-9.08,6.65-10.01,2.59-.52,5.62-.99,8.95-1.41l1.04-6.33c-1.54.2-2.44.33-2.49.34-.43.06-.85.09-1.27.09-4.14,0-7.76-3.02-8.4-7.24-.7-4.64,2.5-8.97,7.14-9.67.91-.14,16.28-2.41,34.49-3.07l.03-3.37c-24.61.24-50.11,1.36-69.3,2.82l-.57.89c1.09-.04,2.14-.06,3.15-.06,8.78,0,14.28,1.64,17.75,5.15,2.85,2.88,4.01,6.85,3.18,10.9-.82,4.04-3.57,9.01-7.09,14.09l.57.25c3.79,1.66,5.52,6.09,3.85,9.88-1.23,2.81-3.99,4.49-6.87,4.49-1.01,0-2.03-.2-3.01-.63l-4.12-1.81c-4.88,5.65-9.54,10.43-11.97,12.87-1.66,1.66-3.84,2.49-6.01,2.49s-4.35-.83-6.01-2.49c-3.32-3.32-3.32-8.7,0-12.02,2.51-2.52,5.1-5.26,7.61-8.04l-10.58-4.64-.61.95c-1.91,2.97-5.13,4.6-8.42,4.6-1.85,0-3.72-.51-5.39-1.59-4.65-2.98-6-9.17-3.01-13.82l11.99-18.67c-1.13.2-2.12.41-2.94.61-.81.2-1.62.3-2.42.3-4.49,0-8.56-3.04-9.7-7.59-1.33-5.36,1.93-10.79,7.29-12.12,3.88-.97,10.22-1.89,18.24-2.72l.83-9.29c-4.88.58-9.77,1.22-14.64,1.92-.48.07-.96.1-1.43.1-4.89,0-9.17-3.6-9.89-8.58-.79-5.47,3.01-10.54,8.48-11.32,6.44-.92,12.89-1.75,19.31-2.48l1.13-12.55c-.53.05-1.05.09-1.58.14l-5.98,8.67c-1.94,2.81-5.06,4.32-8.24,4.32-1.96,0-3.94-.57-5.67-1.77-4.55-3.14-5.69-9.37-2.55-13.91l21.3-30.86c1.94-2.81,5.06-4.32,8.24-4.32M585.34,845.98c3.33-.06,6.56-.09,9.68-.09.89,0,1.77,0,2.65,0l-.45-10.41c-3.71-.07-7.72-.11-11.98-.12l.1,10.6M559.99,846.92c3.52-.2,6.97-.36,10.36-.5l-.1-10.94c-3.15.05-6.35.12-9.6.2l-.66,11.23M532.83,848.94c4.07-.38,8.1-.72,12.08-1.02l.68-11.69c-3.9.17-7.81.38-11.68.61l-1.08,12.1M585.63,876.28c4.46-.1,8.92-.17,13.34-.21l-.44-10.15c-1.03,0-2.08,0-3.14,0-3.17,0-6.46.03-9.86.09l.1,10.28M558.22,877.18c4.08-.18,8.23-.34,12.42-.49l-.1-10.24c-3.82.16-7.74.36-11.73.59l-.59,10.13M530.15,878.82c4.13-.31,8.48-.6,13-.86l.58-9.87c-4.2.33-8.44.71-12.72,1.12l-.86,9.61M584.23,923.9c4.79-.3,9.81-.51,14.84-.62l.07-6.81c-4.92.19-9.62.51-13.84.86l-1.08,6.57M530.55,922.86c1.71-2.25,3.18-4.33,4.27-6.11-.61-.03-1.26-.04-1.96-.04-3.79,0-8.77.37-13.9,1.06l11.58,5.08M524.27,798.23h0c-3.95,0-7.64,1.94-9.89,5.18l-21.3,30.86c-3.76,5.45-2.39,12.93,3.06,16.69.17.11.33.22.5.33-2.6.69-4.88,2.22-6.51,4.4-1.92,2.57-2.73,5.73-2.27,8.9.84,5.87,5.94,10.3,11.87,10.3.57,0,1.15-.04,1.72-.12,3.92-.56,8-1.11,12.14-1.62l-.47,5.19c-7.6.83-13.28,1.7-16.88,2.59-3.11.77-5.73,2.71-7.39,5.46-1.65,2.75-2.14,5.97-1.36,9.08,1.33,5.36,6.12,9.11,11.64,9.11.38,0,.77-.02,1.15-.06l-9.46,14.73c-1.73,2.7-2.31,5.91-1.63,9.04.68,3.13,2.54,5.81,5.24,7.54,1.94,1.25,4.18,1.9,6.47,1.9,3.91,0,7.53-1.87,9.78-5.03l6.47,2.84c-1.92,2.07-3.82,4.06-5.67,5.91-4.09,4.1-4.09,10.76.01,14.85,1.98,1.98,4.62,3.07,7.42,3.07s5.45-1.09,7.43-3.08c2.22-2.22,6.49-6.6,11.09-11.86l2.77,1.21c1.22.53,2.5.8,3.81.8,3.77,0,7.19-2.23,8.7-5.68,0,0,0-.02.01-.02,1.89,2.91,5.17,4.78,8.79,4.78.69,0,1.39-.07,2.08-.21,7.46-1.5,19.78-2.61,33.27-3l-.05,4.99c-.06,5.79,4.6,10.55,10.39,10.6h.11c5.73,0,10.44-4.66,10.5-10.4l.05-5.17c2.64.09,5.15.22,7.49.38.25.02.49.03.74.03,5.48,0,10.08-4.3,10.45-9.78.4-5.78-3.98-10.8-9.76-11.19-2.74-.19-5.66-.33-8.72-.44l.03-2.87c1.42.07,2.77.16,4.07.26.28.02.56.03.83.03,5.44,0,10.03-4.25,10.46-9.68.22-2.8-.66-5.51-2.48-7.64-1.36-1.59-3.12-2.72-5.08-3.28.06,0,.12,0,.18,0,6.48,0,11.86-5.27,11.99-11.75.14-6.62-5.13-12.11-11.75-12.25-3.32-.07-6.82-.12-10.44-.14l-.24-5.63c3.58.2,6.78.45,9.54.75.44.05.89.07,1.33.07,6.12,0,11.24-4.6,11.91-10.69.35-3.19-.56-6.32-2.57-8.82-2.01-2.5-4.86-4.07-8.05-4.42-3.8-.42-8.23-.75-13.2-.99l-.27-6.14c1.42.11,2.62.22,3.57.34.49.06.98.09,1.47.09,6.05,0,11.16-4.53,11.9-10.54.81-6.57-3.88-12.57-10.45-13.37-6.76-.83-20.51-1.33-36.77-1.33-16.18,0-33.32.48-48.69,1.35,2.06-5.09.39-11.12-4.31-14.37-2.01-1.39-4.37-2.12-6.81-2.12h0ZM587.32,843.95l-.06-6.57c2.77.01,5.46.04,8.04.08l.28,6.43c-.19,0-.37,0-.56,0-2.52,0-5.1.02-7.7.05h0ZM562.53,837.64c1.87-.05,3.77-.09,5.73-.12l.07,6.99c-2.1.09-4.17.19-6.21.3l.42-7.16h0ZM535.75,838.73c2.53-.15,5.11-.28,7.71-.41l-.45,7.73c-2.66.21-5.33.43-7.98.67l.72-8h0ZM511.82,849.18c.36-.4.7-.83,1.02-1.28l3.46-5.02-.52,5.82c-1.32.15-2.64.31-3.96.47h0ZM587.55,867.97c2.66-.04,5.29-.06,7.84-.06.41,0,.82,0,1.22,0l.27,6.18c-3.05.04-6.16.09-9.27.15l-.06-6.27h0ZM560.7,868.95c2.63-.15,5.26-.28,7.85-.4l.06,6.22c-2.77.1-5.54.21-8.27.32l.36-6.14h0ZM532.85,871.05c2.92-.28,5.84-.54,8.74-.78l-.34,5.8c-3.06.19-6.04.38-8.91.59l.5-5.61h0ZM546.29,899.82c12.12-.69,25.29-1.21,38.2-1.51-11.36.93-19.49,2.14-19.96,2.21-5.12.77-8.83,5.15-8.94,10.16-.49-2.7-1.78-5.2-3.8-7.23-1.51-1.53-3.32-2.73-5.5-3.63h0ZM549.38,929.12c3.36-5.12,5.43-9.47,6.14-12.96.21-1.04.31-2.07.3-3.08,1.01,4.79,5.32,8.33,10.26,8.33.45,0,.9-.03,1.35-.09l-.36,2.18c-2.86.38-5.41.8-7.61,1.24-2.75.55-5.12,2.15-6.67,4.48-.45.68-.82,1.39-1.09,2.14-.63-.86-1.41-1.63-2.32-2.25h0ZM587.03,919.2c3.44-.27,6.82-.49,10.09-.64l-.03,2.77c-3.56.1-7.07.24-10.49.43l.42-2.56h0ZM526.68,918.98c1.56-.12,3.05-.2,4.42-.24-.37.53-.77,1.08-1.2,1.65l-3.22-1.41h0Z"
             id="path37" />
          <path
             class="ai"
             d="M544.02,944.47c-1.01,0-2.03-.2-3.01-.63l-39.25-17.22c-3.79-1.66-5.52-6.09-3.85-9.88,1.66-3.79,6.09-5.52,9.88-3.85l39.25,17.22c3.79,1.66,5.52,6.09,3.85,9.88-1.23,2.81-3.99,4.49-6.87,4.49Z"
             id="path38" />
          <path
             class="ah"
             d="M500.91,935.75c-1.85,0-3.72-.51-5.39-1.59-4.65-2.98-6-9.17-3.01-13.82l23.4-36.45c2.98-4.65,9.17-5.99,13.82-3.01,4.65,2.98,6,9.17,3.01,13.82l-23.4,36.45c-1.91,2.97-5.13,4.6-8.42,4.6Z"
             id="path39" />
          <path
             class="ah"
             d="M518.92,957.39c-2.17,0-4.35-.83-6.01-2.49-3.32-3.32-3.32-8.7,0-12.02,8.46-8.48,17.81-19.44,21.92-26.12-5.5-.23-14.75.59-23.09,2.2-4.6.88-9.07-2.12-9.96-6.73-.89-4.61,2.12-9.07,6.73-9.96.31-.06,7.67-1.47,15.87-2.17,13.77-1.16,21.54.26,26,4.76,2.85,2.88,4.01,6.85,3.18,10.9-2.49,12.22-22.54,33.04-28.62,39.13-1.66,1.66-3.84,2.49-6.01,2.49Z"
             id="path40" />
          <path
             class="ah"
             d="M521.49,898.95c-.22,0-.45,0-.68-.03-4.13-.37-7.17-4.01-6.8-8.14l5.54-61.82c.37-4.13,4.02-7.17,8.14-6.8,4.13.37,7.17,4.01,6.8,8.14l-5.54,61.82c-.35,3.9-3.62,6.83-7.46,6.83Z"
             id="path41" />
          <path
             class="ah"
             d="M549.96,897.52c-.15,0-.3,0-.44-.01-4.14-.24-7.29-3.79-7.05-7.92l3.58-61.25c.24-4.14,3.79-7.3,7.92-7.05,4.14.24,7.29,3.79,7.05,7.92l-3.58,61.25c-.23,3.99-3.54,7.06-7.48,7.06Z"
             id="path42" />
          <path
             class="ah"
             d="M578.25,896.09c-4.11,0-7.46-3.31-7.5-7.43l-.58-60.62c-.04-4.14,3.29-7.53,7.43-7.57,4.15-.05,7.53,3.29,7.57,7.43l.58,60.62c.04,4.14-3.29,7.53-7.43,7.57-.02,0-.05,0-.07,0Z"
             id="path43" />
          <path
             class="ah"
             d="M606.95,894.65c-3.99,0-7.31-3.15-7.49-7.18l-2.59-60.04c-.18-4.14,3.03-7.64,7.17-7.82,4.16-.17,7.64,3.03,7.82,7.17l2.59,60.04c.18,4.14-3.03,7.64-7.17,7.82-.11,0-.22,0-.33,0Z"
             id="path44" />
          <path
             class="ah"
             d="M607.34,955.94h-.09c-4.69-.05-8.46-3.89-8.41-8.58l.59-59.34c.05-4.69,3.86-8.5,8.58-8.41,4.69.05,8.46,3.89,8.41,8.58l-.59,59.34c-.05,4.67-3.84,8.42-8.5,8.42Z"
             id="path45" />
          <path
             class="ah"
             d="M575.13,940.63c-.4,0-.81-.03-1.22-.1-4.09-.67-6.86-4.53-6.19-8.61l3.89-23.77c.67-4.09,4.53-6.86,8.61-6.19,4.09.67,6.86,4.53,6.19,8.61l-3.89,23.77c-.6,3.68-3.78,6.29-7.39,6.29Z"
             id="path46" />
          <path
             class="aj"
             d="M513.07,838.44c-5.08,0-9.43-3.86-9.94-9.02-.54-5.5,3.48-10.39,8.97-10.93,39.04-3.83,92.74-3.73,108.5-1.8,5.48.67,9.38,5.66,8.71,11.14-.67,5.48-5.67,9.38-11.14,8.71-13.31-1.63-65.19-1.97-104.11,1.85-.33.03-.66.05-.99.05Z"
             id="path47" />
          <path
             class="aj"
             d="M499.73,872.89c-4.89,0-9.17-3.6-9.89-8.58-.79-5.47,3.01-10.54,8.48-11.32,51.54-7.4,104.04-8.47,129.28-5.69,5.49.6,9.45,5.54,8.85,11.03-.6,5.49-5.53,9.45-11.03,8.85-23.39-2.57-74.89-1.48-124.25,5.61-.48.07-.96.1-1.43.1Z"
             id="path48" />
          <path
             class="aj"
             d="M499.13,902.58c-4.49,0-8.56-3.04-9.7-7.59-1.33-5.36,1.93-10.79,7.29-12.12,17.22-4.28,82.61-7.66,129.58-6.69,5.52.11,9.91,4.68,9.79,10.2-.11,5.45-4.57,9.79-9.99,9.79-.07,0-.14,0-.21,0-47.47-.98-110.29,2.61-124.34,6.1-.81.2-1.62.3-2.42.3Z"
             id="path49" />
          <path
             class="aj"
             d="M566.08,919.41c-4.14,0-7.76-3.02-8.4-7.24-.7-4.64,2.5-8.97,7.14-9.67,1.31-.2,32.33-4.79,58.86-2.7,4.68.37,8.17,4.46,7.81,9.14-.37,4.68-4.46,8.17-9.14,7.81-24.55-1.93-54.69,2.52-55,2.56-.43.06-.85.09-1.27.09Z"
             id="path50" />
          <path
             class="aj"
             d="M561.53,943.54c-3.96,0-7.51-2.79-8.32-6.82-.93-4.6,2.05-9.08,6.65-10.01,15.3-3.08,45.27-4.39,66.82-2.92,4.68.32,8.22,4.38,7.9,9.06s-4.38,8.23-9.06,7.9c-19.95-1.37-48.47-.17-62.3,2.62-.57.11-1.13.17-1.69.17Z"
             id="path51" />
          <path
             class="ah"
             d="M502.95,851.09c-1.96,0-3.94-.57-5.67-1.77-4.55-3.14-5.69-9.37-2.55-13.91l21.3-30.86c3.14-4.55,9.36-5.69,13.91-2.55,4.55,3.14,5.69,9.37,2.55,13.91l-21.3,30.86c-1.94,2.81-5.06,4.32-8.24,4.32Z"
             id="path52" />
        </g>
        <g
           id="k"
           data-name="鶴">
          <g
             id="g59">
            <path
               class="af"
               d="M450.92,821.52c16.47,0,20.19,3.78,21.65,5.27,6.83,6.95,6.83,27.77,6.23,39.56l-.37,7.23-7.24-.12c-.06,0-1.67-.03-4.38-.03-7.88,0-25.12.2-41.4,1.76-.12,1.51-.24,3.04-.36,4.58,10.53-.61,28.7-1.3,42.97-1.3,3.32,0,6.43.04,9.19.12,2.76.08,4.93,2.39,4.84,5.15-.08,2.71-2.29,4.85-4.99,4.85-.05,0-.11,0-.16,0-2.6-.08-5.56-.11-8.73-.11-14.62,0-33.83.75-43.86,1.36-.12,1.68-.24,3.36-.35,5.04,5.02-.47,11.63-1,18.41-1.3,3.71-.17,7.04-.25,10.04-.25,18.62,0,24.26,3.1,26.72,7.96,3.42,6.77,4.39,19.99,4.61,23.88,1.02,18.26-2.41,22.15-3.7,23.62-3.19,3.62-8.07,5.21-13.08,5.21-5.49,0-11.13-1.9-14.9-5.12-3.15-2.69-3.52-7.43-.83-10.58,1.48-1.73,3.59-2.63,5.7-2.63,1.72,0,3.46.59,4.87,1.8,1.1.94,3.57,1.5,5.4,1.5.46,0,.88-.04,1.22-.11,1.22-5.52.2-22.72-2.14-29.46-2.43-.75-7.25-1.08-13.35-1.08-10.21,0-24,.93-36.16,2.38l-8.94,1.07.56-8.98c.01-.17,1.06-16.89,2.46-33.82,3.02-36.51,4.54-38.3,6.46-40.55,4.16-4.9,18.15-6.41,29.15-6.81,1.58-.06,3.05-.08,4.44-.08M428.42,844.01c11.58-1.04,19.55-1.49,27.78-1.49,2.25,0,4.53.03,6.9.1-.32-2.26-.72-4.03-1.18-5.07-2.01-.73-6.03-1.05-10.68-1.05-7.8,0-17.35.88-22.01,2.15-.25,1.34-.52,3.16-.81,5.36M426.71,860.03c14.42-1.25,28.87-1.54,37.3-1.58,0-1.98-.03-3.93-.1-5.8-2.71-.09-5.27-.13-7.8-.13-8.36,0-16.41.49-28.84,1.64-.19,1.86-.38,3.82-.57,5.87M450.92,819.52v2s0-2,0-2c-1.44,0-2.95.03-4.51.09-16.59.6-26.88,3.13-30.6,7.51-2.32,2.73-3.85,4.53-6.92,41.68-1.41,17.02-2.46,33.71-2.47,33.87l-.56,8.98-.15,2.4,2.38-.28,8.94-1.07c12.23-1.46,25.99-2.37,35.92-2.37,6.65,0,10.06.4,11.77.75,1.8,6.37,2.67,19.92,1.99,25.89-1.52-.09-3.09-.57-3.6-1-1.72-1.47-3.91-2.28-6.17-2.28-2.78,0-5.42,1.21-7.22,3.33-3.4,3.98-2.93,9.99,1.05,13.4,4.11,3.51,10.16,5.6,16.2,5.6s11.24-2.09,14.58-5.89c1.57-1.79,5.26-5.98,4.19-25.05-.22-3.99-1.23-17.55-4.82-24.66-3.29-6.52-11.28-9.06-28.5-9.06-3.04,0-6.45.08-10.13.25-5.01.22-10.44.59-16.17,1.09.02-.31.04-.63.07-.94,11.02-.62,28.78-1.25,41.99-1.25,3.28,0,6.2.04,8.67.11.07,0,.15,0,.22,0,3.8,0,6.87-2.98,6.99-6.79.12-3.86-2.92-7.09-6.78-7.21-2.66-.08-5.77-.12-9.25-.12-13.2,0-29.83.59-40.8,1.17.02-.21.03-.41.05-.62,15.41-1.38,31.28-1.6,39.54-1.6,2.71,0,4.29.02,4.35.02l7.24.12,1.93.03.1-1.93.37-7.23c.76-14.81.2-33.95-6.8-41.07-1.73-1.76-5.77-5.87-23.08-5.87h0ZM430.97,840.29c4.71-1.03,13.06-1.78,20.27-1.78,4.03,0,7.27.24,9.14.68.1.35.22.8.34,1.38-1.55-.03-3.04-.04-4.52-.04-7.52,0-14.82.36-25.46,1.28.08-.55.16-1.05.23-1.51h0ZM429.1,856c11.92-1.08,19.36-1.48,27.01-1.48,1.87,0,3.8.03,5.85.08.01.62.03,1.25.03,1.87-8.7.08-20.77.39-33.08,1.37.06-.62.12-1.24.18-1.84h0Z"
               id="path53" />
            <path
               class="af"
               d="M440.78,911.46c1.95,2.52,6,6.34,6.32,14.32.32,7.98-3.62,14.88-3.62,14.88,0,0-5.47-6.05-6.13-14.46-.66-8.41,2.07-11.65,3.43-14.74M440.3,907.58l-1.36,3.07c-.21.49-.48,1.01-.77,1.56-1.44,2.81-3.42,6.65-2.83,14.15.71,8.99,6.4,15.38,6.64,15.64l1.85,2.05,1.37-2.4c.17-.3,4.21-7.5,3.88-15.95-.31-7.65-3.84-11.93-5.95-14.49-.29-.35-.55-.67-.78-.97l-2.06-2.66h0Z"
               id="path54" />
            <path
               class="af"
               d="M428.6,912.23s6.4,5.57,6.31,15.28c-.08,9.71-5.93,18.46-5.93,18.46,0,0-5.81-7.2-5.81-17.36,0-10.15,5.43-16.38,5.43-16.38M428.41,909.41l-1.31,1.51c-.24.28-5.92,6.92-5.92,17.7,0,10.74,6,18.3,6.25,18.61l1.71,2.12,1.51-2.26c.25-.38,6.18-9.37,6.27-19.56.09-10.51-6.71-16.55-7-16.8l-1.51-1.31h0Z"
               id="path55" />
            <path
               class="af"
               d="M413.74,913.24s5.52,7.44,4.99,17.7c-.53,10.25-7.99,18.82-7.99,18.82,0,0-5.19-9.74-4.66-19.19.53-9.45,7.66-17.33,7.66-17.33M413.9,910.09l-1.64,1.81c-.31.34-7.62,8.53-8.18,18.56-.55,9.89,4.67,19.82,4.9,20.24l1.37,2.56,1.91-2.19c.32-.37,7.93-9.22,8.48-20.04.56-10.85-5.14-18.66-5.39-18.99l-1.45-1.96h0Z"
               id="path56" />
            <path
               class="af"
               d="M445.46,798.87c6.9,0,12.5,5.6,12.5,12.5s-5.6,12.5-12.5,12.5-12.5-5.6-12.5-12.5,5.6-12.5,12.5-12.5M445.46,796.87c-8,0-14.5,6.5-14.5,14.5s6.5,14.5,14.5,14.5,14.5-6.5,14.5-14.5-6.5-14.5-14.5-14.5h0Z"
               id="path57" />
            <path
               class="af"
               d="M457.88,912.18c4.69,0,8.5,3.81,8.5,8.5s-3.81,8.5-8.5,8.5-8.5-3.81-8.5-8.5,3.81-8.5,8.5-8.5M457.88,910.18c-5.79,0-10.5,4.71-10.5,10.5s4.71,10.5,10.5,10.5,10.5-4.71,10.5-10.5-4.71-10.5-10.5-10.5h0Z"
               id="path58" />
            <path
               class="af"
               d="M382.43,807.35c.89,0,1.8.12,2.71.37,5.32,1.49,8.42,7.01,6.93,12.33-.32,1.15-.68,2.32-1.05,3.5,11.44,1,14.11,3.54,15.89,6.46,4.43,7.28,1.87,16.45,1.31,18.22-1.15,3.62-4.5,5.93-8.1,5.93-.85,0-1.72-.13-2.57-.4-4.47-1.42-6.95-6.2-5.53-10.67.2-.67.34-1.53.41-2.32-1.99-.28-4.71-.46-7.79-.57-4.73,10.64-10.59,21.33-16.46,30.72.94,1.65,1.33,3.62.99,5.64-4.72,27.49-6.02,41.27-6.02,64.1,0,4.69-3.81,8.5-8.5,8.5s-8.5-3.81-8.5-8.5c0-17.3.85-30.01,2.68-43.95-1.85,1.55-4.14,2.34-6.42,2.34-2.5,0-5-.93-6.94-2.8-3.98-3.83-4.09-10.17-.25-14.14,6.97-7.23,18.29-23.97,27.09-41.48-2.79.2-5.18.45-6.86.75-.05.97.03,2.23.18,2.92.95,4.6-2.01,9.09-6.61,10.04-.58.12-1.16.18-1.72.18-3.95,0-7.49-2.77-8.32-6.79-1.55-7.53-.35-17.71,8.13-21.59,4.3-1.96,15.34-2.66,22.89-2.91,1.1-2.94,2.06-5.82,2.84-8.58,1.24-4.41,5.25-7.3,9.62-7.3M382.43,805.35c-5.35,0-10.1,3.6-11.55,8.76-.63,2.23-1.41,4.64-2.32,7.17-11.32.43-18.82,1.45-22.31,3.04-9.56,4.37-10.96,15.56-9.26,23.81,1,4.86,5.32,8.38,10.28,8.38.71,0,1.43-.07,2.13-.22.85-.18,1.66-.45,2.42-.81-6.82,11.36-13.62,20.63-18.06,25.24-2.23,2.31-3.42,5.34-3.36,8.55.06,3.2,1.36,6.2,3.67,8.42,2.25,2.17,5.21,3.36,8.33,3.36,1.35,0,2.69-.23,3.95-.67-1.56,13-2.2,24.98-2.2,40.28,0,5.79,4.71,10.5,10.5,10.5s10.5-4.71,10.5-10.5c0-22.7,1.29-36.41,5.99-63.77.34-1.98.1-4.02-.67-5.86,5.89-9.5,11.21-19.41,15.45-28.79,1.58.07,2.99.16,4.19.27-.84,2.64-.59,5.48.7,7.97,1.29,2.49,3.47,4.33,6.15,5.18,1.03.33,2.1.49,3.18.49,4.6,0,8.62-2.95,10.01-7.33.61-1.91,3.38-11.84-1.51-19.86-2.21-3.64-5.47-6.03-14.97-7.16.13-.42.24-.82.35-1.22.87-3.09.48-6.32-1.09-9.12-1.57-2.79-4.13-4.81-7.22-5.68-1.06-.3-2.15-.45-3.25-.45h0ZM357.45,843.1c.43-.06.9-.11,1.39-.16-.37.71-.74,1.41-1.12,2.11-.04-.38-.09-.77-.17-1.16-.04-.19-.08-.47-.1-.79h0Z"
               id="path59" />
          </g>
          <circle
             class="aj"
             cx="445.46"
             cy="811.37"
             r="12.5"
             id="circle59" />
          <circle
             class="aj"
             cx="457.88"
             cy="920.68"
             r="8.5"
             id="circle60" />
          <path
             class="al"
             d="M354.62,949.16c-4.69,0-8.5-3.81-8.5-8.5,0-26.13,1.93-41.78,6.26-66.98.79-4.63,5.19-7.73,9.82-6.94,4.63.8,7.73,5.19,6.94,9.82-4.72,27.49-6.02,41.27-6.02,64.1,0,4.69-3.81,8.5-8.5,8.5Z"
             id="path60" />
          <path
             class="ai"
             d="M406.9,830c-1.78-2.92-4.44-5.45-15.89-6.46.37-1.18.73-2.34,1.05-3.5,1.49-5.32-1.61-10.84-6.93-12.33-5.31-1.49-10.84,1.61-12.33,6.93-.78,2.77-1.74,5.64-2.84,8.58-7.55.25-18.59.95-22.89,2.91-8.49,3.88-9.69,14.05-8.13,21.59.83,4.02,4.37,6.79,8.32,6.79.57,0,1.15-.06,1.72-.18,4.6-.95,7.56-5.44,6.61-10.04-.14-.69-.23-1.94-.18-2.92,1.67-.29,4.06-.55,6.86-.75-8.8,17.51-20.12,34.25-27.09,41.48-3.83,3.97-3.72,10.31.25,14.14,1.94,1.87,4.44,2.8,6.94,2.8s5.24-1.02,7.2-3.06c9.58-9.93,24.91-33,35.04-55.8,3.08.1,5.8.29,7.79.57-.07.79-.21,1.65-.41,2.32-1.42,4.48,1.06,9.25,5.53,10.67,4.47,1.42,9.25-1.06,10.67-5.53.56-1.76,3.12-10.93-1.31-18.22Z"
             id="path61" />
          <path
             class="ai"
             d="M440.78,911.46c-1.36,3.09-4.09,6.33-3.43,14.74s6.13,14.46,6.13,14.46c0,0,3.94-6.91,3.62-14.88s-4.37-11.79-6.32-14.32Z"
             id="path62" />
          <path
             class="ai"
             d="M428.6,912.23s-5.43,6.23-5.43,16.38,5.81,17.36,5.81,17.36c0,0,5.85-8.76,5.93-18.46s-6.31-15.28-6.31-15.28Z"
             id="path63" />
          <path
             class="ai"
             d="M413.74,913.24s-7.14,7.89-7.66,17.33,4.66,19.19,4.66,19.19c0,0,7.47-8.57,7.99-18.82s-4.99-17.7-4.99-17.7Z"
             id="path64" />
          <path
             class="ah"
             d="M422.64,854.53c-2.55,0-4.72-1.94-4.97-4.52-.26-2.75,1.75-5.19,4.5-5.46,22.38-2.15,31.96-2.48,48.83-1.67,2.76.13,4.89,2.48,4.75,5.23s-2.47,4.89-5.23,4.75c-16.48-.79-25.34-.48-47.39,1.63-.16.02-.32.02-.48.02Z"
             id="path65" />
          <path
             class="ah"
             d="M418.86,890.23c-2.55,0-4.73-1.95-4.97-4.54-.25-2.75,1.77-5.18,4.52-5.44,8.36-.77,41.02-2.18,58.8-1.64,2.76.08,4.93,2.39,4.84,5.15-.08,2.76-2.39,4.93-5.15,4.84-17.11-.52-49.63.87-57.58,1.6-.16.01-.31.02-.46.02Z"
             id="path66" />
          <path
             class="ai"
             d="M466.97,954.01c-5.48,0-11.13-1.9-14.9-5.12-3.15-2.69-3.52-7.43-.83-10.57,2.69-3.15,7.43-3.52,10.57-.83,1.37,1.17,4.91,1.75,6.62,1.39,1.22-5.52.2-22.72-2.14-29.46-6.49-2.01-30.08-1.02-49.51,1.3l-8.94,1.07.56-8.98c.01-.17,1.06-16.89,2.46-33.82,3.02-36.51,4.54-38.3,6.46-40.55,4.16-4.9,18.15-6.41,29.16-6.81,20.28-.73,24.5,3.57,26.09,5.19,6.83,6.95,6.83,27.77,6.23,39.56l-.37,7.23-7.24-.12c-.25,0-23.89-.36-45.78,1.73-.51,6.35-1,13.03-1.45,19.68,5.02-.47,11.63-1,18.41-1.3,26.77-1.2,33.91,2.07,36.76,7.72,3.42,6.78,4.39,19.99,4.61,23.88,1.02,18.25-2.41,22.15-3.7,23.62-3.19,3.62-8.06,5.21-13.08,5.21ZM468.15,939.83h0ZM469.04,938.66h0ZM429.23,838.66c-.73,3.86-1.61,11.64-2.52,21.37,14.42-1.25,28.87-1.54,37.3-1.58.02-9.35-.8-17.98-2.09-20.9-5.38-1.96-25.26-.91-32.69,1.1ZM427.36,839.3s0,0,0,0h0ZM462.49,837.8h0ZM461.64,837.04h0ZM429.72,836.57h0Z"
             id="path67" />
          <g
             id="l"
             data-name="こあら">
            <path
               class="af"
               d="M412.57,873.24c-5-1.93-8.53,2.34-10.87,5.17-.18.22-.35.43-.52.63-2.42-2.78-10.34-10.52-22.31-8.85-.73.1-1.44.25-2.13.41-.84-2.98-3.51-5.28-7.11-6.01-3.72-.75-9.09.18-11.97,5.24-.4.63-.35,1.17-.23,1.51.23.7.87,1.08,1.47,1.34-1.86,1.52-5.47,4.75-5.82,10.69-.04.74.34,1.12.57,1.28.56.39,1.25.26,1.92,0-.98,4.53-1.62,9.01.08,11.42.45.64,1.05,1.09,1.76,1.33.77,5.66,3.69,10.13,8.29,12.95-.43.89-1.07,2.55-1.37,4.83-.15.02-.31.05-.46.07-.69.11-1.24.19-1.57.24-1.15.15-2.93.05-4.22-.03-1.84-.11-2.33-.13-2.66.55-.4.82.17,1.27,1.54,2.35.08.07.18.14.28.22-.42.15-.89.31-1.27.44-2.49.85-2.8.96-2.91,1.68-.15,1.04.73,1.2,2.32,1.49.47.08,1.24.22,1.85.37-.19.19-.4.39-.57.54-.96.9-1.54,1.45-1.49,2.16l.08.53.35.28c.54.43,1.28.29,2.61.06.74-.13,1.67-.29,2.13-.25.29.04,1.46.52,2.49.94.09.04.2.08.3.12-.02.56.02,1.15.08,1.73,0,0,0,0,0,0-.19-.07-.75-.26-1.25.1-.68.51-.53,1.36-.14,2.84-1.67-.54-2.43-.78-3.01-.22-.82.78-.12,1.63,1.04,3.05.08.1.17.21.27.33-1.31.11-2.04.18-2.4.79-.58.97.26,1.65,1.93,3.02.5.4,1.05.86,1.6,1.34.17.15.52.53.92.96,2.43,2.64,8.83,9.6,16.55,9.59,1.89,0,3.86-.42,5.86-1.42,10.11-5.04,12.88-18.43,8.02-38.72-.04-.16-.13-.3-.23-.42,1.74-.81,3.15-1.58,4.06-2.11.47,2.03,1.17,3.88,2.08,5.34,1.39,2.24,3.22,3.55,5.28,3.78.37.04.73.06,1.08.06,1.5,0,2.73-.39,3.68-1.15,1.78-1.44,2.04-3.77,2.17-5.04,0,0,.01,0,.02,0,1.58.19,4.88.57,6.6-1.97,1.79-2.22.81-6.48-.58-10.81.89.15,1.99.14,2.97-.54,1.23-.85,1.91-2.52,2.03-4.97.34-7.31-3.33-17.02-9.14-19.27ZM357.65,882.61c-.56-.79-1.48-.39-2.22-.06-.08.04-.18.08-.29.13.61-4.89,3.88-7.53,5.32-8.69.56-.45.84-.67.99-1.01.14-.3.14-.63.02-.93-.23-.57-.79-.79-1.39-1.03-.17-.07-.45-.18-.64-.28,2.4-4.05,6.76-4.79,9.79-4.18,2.3.46,4.86,1.91,5.58,4.59-11,3.71-17.42,15.39-17.6,23.7-1.38-2.14-.13-7.86.35-10.03.33-1.48.39-1.79.09-2.22ZM365.27,929.27c-.06-.47-.13-1.01-.16-1.51,1.71.67,3.64,1.35,5.58,1.86-1.06.43-2.2,1.12-3.24,2.22-.55-.7-1.33-1.36-2.1-1.91-.02-.21-.05-.42-.08-.65ZM390.61,910.81c3.22,13.44,4.63,30.68-6.97,36.46-8.86,4.41-16.99-4.42-20.05-7.74-.47-.51-.81-.88-1.06-1.1-.57-.5-1.14-.97-1.66-1.39-.11-.09-.23-.19-.35-.29,1-.08,1.47-.15,1.83-.43l.35-.31.04-.41c.05-.52-.2-.94-.94-1.86.93.29,1.36.37,1.79.12l.4-.24.1-.43c.08-.33,0-.63-.26-1.62-.02-.09-.05-.19-.08-.31,1.01.68,2.21,1.68,2.4,2.27-.48.79-.91,1.7-1.26,2.78-.17.53.12,1.09.65,1.26.1.03.2.05.31.05.42,0,.82-.27.95-.69.96-3.01,2.83-4.99,5.4-5.71,3.05-.87,6.97.14,9.75,2.52.42.36,1.05.31,1.41-.11.36-.42.31-1.05-.11-1.41-.89-.76-1.87-1.38-2.89-1.89,2.91-.35,5.39-1.45,8.89-4.2.43-.34.51-.97.17-1.4-.34-.43-.97-.51-1.4-.17-5.19,4.08-7.76,4.11-13.07,3.8-3.72-.22-8.52-2.18-11.4-3.36-1.67-.68-2.5-1.01-3.02-1.07-.56-.06-1.26.02-1.98.14.79-.77,1.21-1.33,1.15-1.97-.08-.79-.74-1.15-2.14-1.47,1.95-.68,2.35-.9,2.43-1.59.06-.53-.19-.87-.91-1.47,1.17.05,2.47.08,3.47-.05.35-.05.9-.13,1.61-.24,3.4-.52,11.35-1.75,14.53-1.21.55.1,1.06-.28,1.15-.82.09-.54-.28-1.06-.82-1.15-2.84-.47-8.57.24-12.65.83.28-1.67.76-2.88,1.08-3.57,2.53,1.22,5.46,2.01,8.75,2.31.56.05,1.13.07,1.7.07,4.46,0,9.08-1.46,12.72-3.01,0,.04,0,.08,0,.12ZM419.71,892.41c-.08,1.77-.49,2.95-1.17,3.42-.75.52-1.89.15-2.5-.05-.45-.15-1.06-.35-1.53.2-.41.48-.29.85.16,2.23.68,2.08,2.48,7.6,1.01,9.43-1,1.48-2.99,1.38-4.77,1.17-.7-.08-1.09-.13-1.47.05-.62.29-.68.91-.76,1.69-.11,1.05-.29,2.8-1.44,3.73-.74.6-1.84.82-3.28.66-1.45-.16-2.73-1.12-3.8-2.84-2.66-4.3-3.32-12.66-1.4-17.9.19-.52-.08-1.09-.6-1.28-.52-.19-1.09.08-1.28.6-1.27,3.47-1.52,8.05-.89,12.21-2.17,1.29-11.68,6.62-19.62,5.9-9.83-.89-16.22-6.54-17.1-15.13-.86-8.46,6.62-22.48,19.87-24.33,13.02-1.82,21.12,8.9,21.2,9,.02.02.05.04.06.06.02.02.03.05.05.07.03.03.07.04.1.06.05.04.11.08.17.1.06.03.12.05.18.06.06.02.12.03.18.03.07,0,.13,0,.19,0,.06,0,.12-.02.18-.04.07-.02.12-.05.18-.09.03-.02.07-.02.1-.05.02-.02.04-.04.06-.06.02-.02.05-.03.07-.05.43-.45.89-1,1.37-1.59,2.71-3.28,5.22-5.89,8.6-4.58,4.8,1.86,8.17,10.83,7.87,17.31Z"
               id="path68" />
            <path
               class="ak"
               d="M357.22,894.85c-1.38-2.14-.13-7.86.35-10.03.33-1.48.39-1.79.09-2.22-.56-.79-1.48-.39-2.22-.06-.08.04-.18.08-.29.13.61-4.89,3.88-7.53,5.32-8.69.56-.45.84-.67.99-1.01.14-.3.14-.63.02-.93-.23-.57-.79-.79-1.39-1.03-.17-.07-.45-.18-.64-.28,2.4-4.05,6.76-4.79,9.79-4.18,2.3.46,4.86,1.91,5.58,4.59-11,3.71-17.42,15.39-17.6,23.7ZM383.65,947.28c-8.86,4.41-16.99-4.42-20.05-7.74-.47-.51-.81-.88-1.06-1.1-.57-.5-1.14-.97-1.66-1.39-.11-.09-.23-.19-.35-.29,1-.08,1.47-.15,1.83-.43l.35-.31.04-.41c.05-.52-.2-.94-.94-1.86.93.29,1.36.37,1.79.12l.4-.24.1-.43c.08-.33,0-.63-.26-1.62-.02-.09-.05-.19-.08-.31,1.01.68,2.21,1.68,2.4,2.27-.48.79-.91,1.7-1.26,2.78-.17.53.12,1.09.65,1.26.1.03.2.05.31.05.42,0,.82-.27.95-.69.96-3.01,2.83-4.99,5.4-5.71,3.05-.87,6.97.14,9.75,2.52.42.36,1.05.31,1.41-.11.36-.42.31-1.05-.11-1.41-.89-.76-1.87-1.38-2.89-1.89,2.91-.35,5.39-1.45,8.89-4.2.43-.34.51-.97.17-1.4-.34-.43-.97-.51-1.4-.17-5.19,4.08-7.76,4.11-13.07,3.8-3.72-.22-8.52-2.18-11.4-3.36-1.67-.68-2.5-1.01-3.02-1.07-.56-.06-1.26.02-1.98.14.79-.77,1.21-1.33,1.15-1.97-.08-.79-.74-1.15-2.14-1.47,1.95-.68,2.35-.9,2.43-1.59.06-.53-.19-.87-.91-1.47,1.17.05,2.47.08,3.47-.05.35-.05.9-.13,1.61-.24,3.4-.52,11.35-1.75,14.53-1.21.55.1,1.06-.28,1.15-.82.09-.54-.28-1.06-.82-1.15-2.84-.47-8.57.24-12.65.83.28-1.67.76-2.88,1.08-3.57,2.53,1.22,5.46,2.01,8.75,2.31.56.05,1.13.07,1.7.07,4.46,0,9.08-1.46,12.72-3.01,0,.04,0,.08,0,.12,3.22,13.44,4.63,30.68-6.97,36.46ZM365.12,927.75c1.71.67,3.64,1.35,5.58,1.86-1.06.43-2.2,1.12-3.24,2.22-.55-.7-1.33-1.36-2.1-1.91-.02-.21-.05-.42-.08-.65-.06-.47-.13-1.01-.16-1.51ZM419.71,892.41c-.08,1.77-.49,2.95-1.17,3.42-.75.52-1.89.15-2.5-.05-.45-.15-1.06-.35-1.53.2-.41.48-.29.85.16,2.23.68,2.08,2.48,7.6,1.01,9.43-1,1.48-2.99,1.38-4.77,1.17-.7-.08-1.09-.13-1.47.05-.62.29-.68.91-.76,1.69-.11,1.05-.29,2.8-1.44,3.73-.74.6-1.84.82-3.28.66-1.45-.16-2.73-1.12-3.8-2.84-2.66-4.3-3.32-12.66-1.4-17.9.19-.52-.08-1.09-.6-1.28-.52-.19-1.09.08-1.28.6-1.27,3.47-1.52,8.05-.89,12.21-2.17,1.29-11.68,6.62-19.62,5.9-9.83-.89-16.22-6.54-17.1-15.13-.86-8.46,6.62-22.48,19.87-24.33,13.02-1.82,21.12,8.9,21.2,9,.02.02.05.04.06.06.02.02.03.05.05.07.03.03.07.04.1.06.05.04.11.08.17.1.06.03.12.05.18.06.06.02.12.03.18.03.07,0,.13,0,.19,0,.06,0,.12-.02.18-.04.07-.02.12-.05.18-.09.03-.02.07-.02.1-.05.02-.02.04-.04.06-.06.02-.02.05-.03.07-.05.43-.45.89-1,1.37-1.59,2.71-3.28,5.22-5.89,8.6-4.58,4.8,1.86,8.17,10.83,7.87,17.31Z"
               id="path69" />
            <path
               class="af"
               d="M375.33,892.32c-1.62-1.27-9.08,6.57-7.59,9.08s2.63,2.83,5.84,2.55,3.37-10.36,1.75-11.63Z"
               id="path70" />
            <circle
               class="af"
               cx="370.92"
               cy="890.47"
               r="1.5"
               id="circle70" />
            <circle
               class="af"
               cx="380.24"
               cy="893.11"
               r="1.5"
               id="circle71" />
          </g>
        </g>
      </g>
    </g>
  </g>
  <g
     id="m"
     data-name="ふり">
    <g
       id="n"
       data-name="ふり-bk">
      <g
         id="g82">
        <path
           class="ag"
           d="M925.53,996.12h0c-3.56-24.88-6.37-31.32-13.66-31.32-6.16,0-9.62,4.5-16.8,29.81-1.13,3.98,1.19,8.13,5.17,9.27,3.97,1.12,8.13-1.2,9.26-5.17.03-.1.06-.2.09-.3l1.1-.12c.54,3.65,3.72,6.4,7.42,6.4.36,0,.73-.03,1.07-.08,4.09-.58,6.95-4.39,6.36-8.49Z"
           id="path71" />
        <path
           class="ag"
           d="M887.61,989.73c-1.5-1.33-3.42-2-5.39-1.87-1.03.06-2.03.12-3.05.19-.24.02-.52.04-.83.05.14-2.47.35-5.23.49-6.98.28-3.64.52-6.78.52-8.82,0-4.14-3.36-7.5-7.5-7.5s-7.5,3.36-7.5,7.5c0,1.47-.24,4.62-.48,7.67-.99,12.9-1.32,17.25,2.11,20.51,2.61,2.47,6.09,2.79,8.83,2.79,1.61,0,5.49-.26,5.49-.26.88-.06,1.8-.12,2.74-.17,4.13-.22,7.3-3.77,7.08-7.89-.11-2.02-1-3.87-2.5-5.21Z"
           id="path72" />
        <path
           class="ag"
           d="M857.83,996.12c-3.56-24.88-6.37-31.32-13.66-31.32-6.16,0-9.62,4.5-16.8,29.81-1.13,3.98,1.19,8.13,5.17,9.27,3.97,1.12,8.13-1.2,9.26-5.17.03-.1.06-.2.09-.3l1.1-.12c.54,3.65,3.72,6.4,7.42,6.4.36,0,.73-.03,1.07-.08,4.09-.58,6.95-4.39,6.36-8.49h0Z"
           id="path73" />
        <path
           class="ag"
           d="M823.06,975.56c0-3.86-3.14-7-7-7-2.07,0-3.93.91-5.21,2.34-.69-.2-1.4-.32-2.13-.34h0c-.7-.02-1.57.06-2.55.33-1.28-1.43-3.14-2.33-5.2-2.33-3.86,0-7,3.14-7,7,0,2.27,1.09,4.28,2.77,5.56-2.34,5.58-4.13,14.09-.58,18.34,2.9,3.47,7.99,4.17,10.77,4.27.3.01.6.02.91.02,4.19,0,9.35-1.04,12.23-4.01,4.78-4.94.8-16.05-.11-18.37,1.87-1.26,3.1-3.39,3.1-5.81Z"
           id="path74" />
        <path
           class="ag"
           d="M776.26,963.94c-10,.8-14.86,11.09-15.99,19.65-.48,3.63-.67,10.42,3.45,15.11,2.4,2.74,5.86,4.25,9.72,4.25,8.88,0,13.73-6.36,15.2-10.12,1.12-2.89.31-6.08-1.81-8.12,1.61-1.22,2.72-3.09,2.93-5.25.12-1.25.5-7.72-3.8-12.09-2.47-2.51-5.92-3.72-9.7-3.42Z"
           id="path75" />
        <path
           class="ag"
           d="M599.29,964.04c-6.16,0-9.62,4.5-16.8,29.81-1.13,3.98,1.19,8.13,5.17,9.26,1.93.55,3.96.31,5.71-.67,1.75-.98,3.01-2.57,3.56-4.5.03-.1.06-.2.09-.3l1.1-.12c.54,3.65,3.72,6.4,7.42,6.4.36,0,.73-.03,1.06-.08,1.98-.28,3.74-1.32,4.94-2.93,1.2-1.6,1.71-3.58,1.42-5.56-3.56-24.88-6.37-31.32-13.66-31.32Z"
           id="path76" />
        <path
           class="ag"
           d="M575.06,967.04c-1.47-1.49-3.42-2.32-5.5-2.32-4.43,0-6.43,2.49-9.01,7.86-2.16-5.23-4.09-7.86-8.67-7.86-7.39,0-8.02,7.6-8.29,10.84-.21,2.52-.35,5.81-.5,8.99-.18,3.96-.37,8.44-.66,10.22-.32,1.98.15,3.96,1.33,5.58,1.17,1.62,2.91,2.69,4.88,3.01,1.98.32,3.96-.15,5.59-1.32,1.63-1.17,2.7-2.91,3.01-4.89.01-.08.03-.16.04-.25.73.25,1.53.39,2.43.42,1.13.05,2.12-.08,3.01-.38.01.11.02.21.03.31.43,3.8,3.63,6.66,7.45,6.66.28,0,.56-.02.84-.05,4.11-.46,7.08-4.18,6.62-8.29-.19-1.67-.09-6.36-.02-10.14.24-11.86.31-15.44-2.59-18.41Z"
           id="path77" />
        <path
           class="ag"
           d="M531,964.55c-2.8,0-5.24,1.54-6.53,3.81-1.15-2.02-3.23-3.49-5.72-3.77-4.11-.44-7.8,2.54-8.26,6.63-.64,5.79-1.67,15.97-1.4,19.02.7,7.82,5.85,13.23,13.11,13.77.4.03.79.04,1.18.04,7.06,0,12.5-4.73,14.19-12.35.83-3.73.92-14.98.92-19.65,0-4.14-3.36-7.5-7.5-7.5Z"
           id="path78" />
        <path
           class="ag"
           d="M500.55,966.9c-5.96-4.27-15.34-2.17-19.1-1.06l-1.71.5c-2.05.6-3.49,2.44-3.58,4.58l-.69,15.67c0,.14-.02.27-.02.41l-.38,8.61c-.18,4.13,3.03,7.64,7.25,7.83h.24c3.02,0,5.62-1.77,6.81-4.35,1.22,2.64,3.9,4.35,6.81,4.35,1.09,0,2.15-.23,3.14-.69,1.82-.84,3.2-2.34,3.89-4.22.69-1.88.61-3.92-.23-5.74l-2.57-5.57c3.27-3.23,4.93-7.25,4.76-11.63-.14-3.58-1.78-6.67-4.62-8.7Z"
           id="path79" />
        <path
           class="ag"
           d="M462.95,964.21c-2.8,0-5.24,1.54-6.53,3.81-1.15-2.02-3.22-3.49-5.71-3.77-4.1-.45-7.81,2.53-8.27,6.63-.64,5.79-1.67,15.97-1.4,19.02.7,7.82,5.85,13.23,13.11,13.76.4.03.79.04,1.18.04,7.06,0,12.49-4.73,14.19-12.35.83-3.73.92-14.98.92-19.65,0-4.14-3.36-7.5-7.5-7.5Z"
           id="path80" />
        <path
           class="ag"
           d="M424.13,964.21c-4.97,0-9.22,2.27-11.67,6.23-2.42,3.92-2.71,9.02-.73,12.98.36.71.77,1.34,1.23,1.92-.25.13-.5.27-.74.43-1.68,1.09-2.83,2.78-3.25,4.74-.41,1.96-.04,3.96,1.06,5.65.48.73,4.88,7.14,12.61,7.14.6,0,1.2-.04,1.79-.12,4.71-.61,8.73-3.35,10.76-7.31,1.92-3.76,1.85-8.1-.21-11.92-.34-.63-.72-1.21-1.13-1.74.13-.1.27-.2.4-.3,1.56-1.27,2.53-3.06,2.73-5.06.24-2.36-.39-5.87-2.87-8.62-1.65-1.83-4.72-4-9.98-4Z"
           id="path81" />
        <path
           class="ag"
           d="M397.54,964.69l-16.56.55c-4.13.14-7.38,3.62-7.24,7.75.13,4.07,3.43,7.25,7.49,7.25l.65-.02-.43,15.62c-.11,4.13,3.16,7.59,7.22,7.7h.28c4.09,0,7.38-3.2,7.5-7.29l.45-16.53,1.16-.04c4.13-.14,7.38-3.62,7.24-7.75-.07-2.01-.92-3.87-2.39-5.24-1.47-1.37-3.37-2.07-5.37-2.01Z"
           id="path82" />
      </g>
    </g>
    <g
       id="o"
       data-name="ふり">
      <path
         id="p"
         data-name="A"
         class="af"
         d="M920.58,996.83c-3.87-27.03-6.67-27.03-8.71-27.03-1.82,0-4.57,0-11.99,26.17-.38,1.33.39,2.71,1.72,3.09,1.33.38,2.71-.4,3.09-1.72.33-1.17.68-2.36,1.04-3.55l5.99-.65c1.37-.15,2.37-1.38,2.22-2.75-.15-1.37-1.39-2.36-2.75-2.22l-3.84.41c1.52-4.71,3.07-9.03,4.26-11.67,1.31,4.38,2.95,13.05,4.03,20.63.18,1.25,1.25,2.15,2.47,2.15.12,0,.24,0,.36-.03,1.37-.2,2.32-1.46,2.12-2.83Z" />
      <path
         id="q"
         data-name="L"
         class="af"
         d="M874.81,998.26c-2.45,0-4.23-.32-5.39-1.42-1.46-1.39-1.54-3.7-.56-16.49.25-3.29.49-6.4.49-8.05,0-1.38,1.12-2.5,2.5-2.5s2.5,1.12,2.5,2.5c0,1.84-.23,4.9-.51,8.43-.3,3.89-.77,10.09-.61,12.46,1.34.17,4.17-.02,6.33-.17.94-.06,1.93-.13,2.93-.18,1.4-.09,2.56.98,2.63,2.36.08,1.38-.98,2.56-2.36,2.63-.99.05-1.95.12-2.88.18-1.94.13-3.63.24-5.08.24ZM873.33,993.92h.01-.01ZM872.65,993.06h0Z" />
      <path
         id="r"
         data-name="A"
         class="af"
         d="M852.88,996.83c-3.87-27.03-6.67-27.03-8.71-27.03-1.82,0-4.57,0-11.99,26.17-.38,1.33.39,2.71,1.72,3.09,1.33.38,2.71-.4,3.09-1.72.33-1.17.68-2.36,1.04-3.55l5.99-.65c1.37-.15,2.37-1.38,2.22-2.75-.15-1.37-1.39-2.36-2.75-2.22l-3.84.41c1.52-4.71,3.07-9.03,4.26-11.67,1.31,4.38,2.95,13.05,4.03,20.63.18,1.25,1.25,2.15,2.47,2.15.12,0,.24,0,.36-.03,1.37-.2,2.32-1.46,2.12-2.83Z" />
      <circle
         id="s"
         data-name="oo1"
         class="af"
         cx="800.97"
         cy="975.56"
         r="2" />
      <circle
         id="t"
         data-name="oo2"
         class="af"
         cx="816.06"
         cy="975.56"
         r="2" />
      <path
         id="u"
         data-name="oo"
         class="af"
         d="M808.58,975.56c-6.41-.18-11.56,17.14-8.59,20.7s13.52,3.07,16.48,0-1.87-20.54-7.89-20.7Z" />
      <path
         id="v"
         data-name="C"
         class="af"
         d="M773.44,997.95c-2.44,0-4.5-.88-5.96-2.54-2.82-3.21-2.62-8.37-2.25-11.16.71-5.41,3.92-14.72,11.43-15.32,2.92-.23,4.73.93,5.74,1.95,2.8,2.84,2.43,7.57,2.38,8.1-.13,1.37-1.34,2.38-2.73,2.25-1.37-.13-2.38-1.35-2.25-2.72.08-.95-.05-3.2-.97-4.13-.15-.15-.56-.56-1.77-.47-3.99.32-6.33,6.91-6.87,10.99-.33,2.53-.23,5.75,1.05,7.21.32.36.89.84,2.2.84,4.21,0,5.73-3.38,5.89-3.77.52-1.27,1.97-1.89,3.25-1.38,1.27.51,1.9,1.94,1.41,3.21-.11.28-2.79,6.93-10.54,6.93Z" />
      <path
         id="w"
         data-name="A"
         class="af"
         d="M608.01,996.07c-3.87-27.03-6.67-27.03-8.71-27.03-1.82,0-4.57,0-11.99,26.17-.38,1.33.39,2.71,1.72,3.09,1.33.38,2.71-.39,3.09-1.72.33-1.17.68-2.36,1.04-3.55l5.99-.65c1.37-.15,2.37-1.38,2.22-2.75-.15-1.37-1.37-2.36-2.75-2.22l-3.84.41c1.52-4.71,3.07-9.03,4.26-11.68,1.31,4.38,2.95,13.05,4.03,20.63.18,1.25,1.25,2.15,2.47,2.15.12,0,.24,0,.36-.03,1.37-.2,2.32-1.46,2.12-2.83Z" />
      <path
         id="x"
         data-name="M"
         class="af"
         d="M570.22,998.92c-1.26,0-2.34-.94-2.48-2.22-.26-2.33-.17-6.76-.08-11.45.03-1.31.06-2.82.07-4.33-.05.12-.1.24-.16.35-3.87,8.65-5.1,11.16-7.63,11.05-2.47-.09-3.56-2.53-6.69-10.86-.06,1.23-.12,2.45-.16,3.53-.21,4.64-.4,9.02-.78,11.37-.22,1.36-1.49,2.29-2.86,2.07-1.36-.22-2.29-1.5-2.07-2.87.33-2.06.53-6.5.72-10.8.14-3.13.28-6.37.48-8.79.27-3.21.52-6.25,3.31-6.25,2.31,0,2.97,1.77,5.77,9.23.69,1.85,1.68,4.47,2.51,6.42.93-1.86,2.05-4.37,2.85-6.14,3.35-7.49,4.25-9.51,6.55-9.51.73,0,1.41.29,1.93.82,1.25,1.27,1.4,3.21,1.17,14.81-.09,4.33-.18,8.8.05,10.79.15,1.37-.83,2.61-2.21,2.76-.09.01-.19.02-.28.02Z" />
      <path
         id="y"
         data-name="U"
         class="af"
         d="M523.39,999.05c-.27,0-.53,0-.81-.03-4.84-.36-8.02-3.81-8.51-9.23-.26-2.86,1.11-15.51,1.39-18.02.15-1.37,1.39-2.36,2.76-2.21,1.37.15,2.36,1.39,2.21,2.76-.62,5.61-1.54,15.2-1.38,17.02.4,4.43,3.03,4.62,3.9,4.69.94.07,3.8.28,4.87-4.51.5-2.23.68-11.9.68-17.47,0-1.38,1.12-2.5,2.5-2.5s2.5,1.12,2.5,2.5c0,1.53-.02,15.06-.8,18.56-1.19,5.34-4.64,8.44-9.31,8.44Z" />
      <path
         id="z"
         data-name="R"
         class="af"
         d="M494.24,985.77c3.6-2.29,6.12-5.57,5.94-9.97-.08-2.03-.96-3.71-2.54-4.84-4.4-3.16-13.08-.83-14.78-.33l-1.71.5-.69,15.75c0,.08-.01.16-.01.24l-.38,8.7c-.06,1.38,1.01,2.55,2.39,2.61.04,0,.08,0,.11,0,1.33,0,2.44-1.05,2.5-2.39l.3-6.82c1.47-.31,2.96-.73,4.39-1.26l4.17,9.02c.42.91,1.33,1.45,2.27,1.45.35,0,.71-.07,1.05-.23,1.25-.58,1.8-2.06,1.22-3.32l-4.21-9.12ZM485.98,975c3.15-.69,7.24-1.05,8.74.03.21.15.43.36.45.97.17,4.31-5.06,6.85-9.59,8.03l.4-9.04Z" />
      <path
         id="aa"
         data-name="U"
         class="af"
         d="M455.33,998.72c-.27,0-.53,0-.81-.03-4.84-.36-8.02-3.81-8.51-9.23-.26-2.86,1.11-15.51,1.39-18.02.15-1.37,1.38-2.36,2.76-2.21,1.37.15,2.36,1.39,2.21,2.76-.62,5.61-1.54,15.2-1.38,17.02.4,4.43,3.03,4.62,3.9,4.69.94.07,3.8.28,4.87-4.51.5-2.23.68-11.9.68-17.47,0-1.38,1.12-2.5,2.5-2.5h0c1.38,0,2.5,1.12,2.5,2.5,0,1.53-.02,15.06-.8,18.56-1.19,5.34-4.64,8.44-9.31,8.44Z" />
      <path
         id="ab"
         data-name="S"
         class="af"
         d="M422.64,998.29c-5.18,0-8.28-4.66-8.42-4.87-.75-1.16-.43-2.71.73-3.46,1.16-.75,2.71-.43,3.46.73.01.02,2.01,2.92,4.73,2.57,1.44-.19,2.62-.92,3.15-1.95.41-.81.38-1.71-.11-2.61-.7-1.29-2.74-2.32-4.54-3.23-2.17-1.1-4.42-2.24-5.44-4.27-1.21-2.41-1-5.68.51-8.12,1.54-2.49,4.17-3.86,7.42-3.86,2.75,0,4.86.79,6.27,2.36,1.83,2.03,1.64,4.49,1.61,4.77-.14,1.37-1.37,2.38-2.74,2.23-1.35-.14-2.35-1.33-2.24-2.68,0-.07,0-.61-.36-.99-.42-.44-1.32-.68-2.53-.68-1.49,0-2.55.5-3.16,1.49-.66,1.07-.67,2.5-.29,3.25.28.55,2.05,1.45,3.22,2.04,2.46,1.24,5.24,2.65,6.68,5.32,1.27,2.34,1.32,4.99.16,7.26-1.28,2.5-3.88,4.23-6.95,4.63-.39.05-.78.08-1.15.08Z" />
      <path
         id="ac"
         data-name="T"
         class="af"
         d="M397.72,969.69l-16.57.55c-1.38.05-2.46,1.2-2.42,2.58.04,1.35,1.15,2.42,2.5,2.42.03,0,.06,0,.08,0l5.71-.19-.57,20.93c-.04,1.38,1.05,2.53,2.43,2.57.02,0,.05,0,.07,0,1.35,0,2.46-1.08,2.5-2.43l.58-21.23,5.86-.2c1.38-.05,2.46-1.2,2.42-2.58-.05-1.38-1.22-2.47-2.58-2.42Z" />
    </g>
  </g>
  <g
     id="ad"
     data-name="ハイライト">
    <path
       class="ag"
       d="M1017.16,939.86c-.79,0-1.56-.37-2.04-1.06-.8-1.13-.53-2.69.6-3.48l3.13-2.21c1.13-.79,2.69-.53,3.48.6s.53,2.69-.6,3.48l-3.13,2.21c-.44.31-.94.46-1.44.46Z"
       id="path83" />
    <path
       class="ag"
       d="M1025.76,933.24c-.72,0-1.43-.31-1.92-.9-.88-1.06-.74-2.64.32-3.52,10.22-8.5,12.52-17.64,12.99-20.24.24-1.36,1.54-2.26,2.9-2.02,1.36.24,2.26,1.54,2.02,2.9-.54,3.02-3.19,13.62-14.71,23.21-.47.39-1.03.58-1.6.58Z"
       id="path84" />
    <path
       class="ag"
       d="M899.34,941.88c-.37,0-.75-.08-1.11-.26-1.24-.61-1.74-2.11-1.13-3.35.41-.82,1.54-3.31,1.9-4.96.29-1.35,1.62-2.21,2.97-1.91,1.35.29,2.21,1.62,1.91,2.97-.55,2.56-2.13,5.76-2.31,6.12-.44.88-1.32,1.39-2.24,1.39Z"
       id="path85" />
    <path
       class="ag"
       d="M903.24,929.45c-.25,0-.5-.04-.75-.12-1.32-.41-2.05-1.82-1.63-3.13,1.58-5.02,2.45-12.16,2.07-16.99-.11-1.38.92-2.58,2.3-2.69,1.39-.1,2.58.92,2.69,2.3.43,5.47-.51,13.24-2.28,18.88-.34,1.07-1.32,1.75-2.38,1.75Z"
       id="path86" />
    <path
       class="ag"
       d="M745.42,868.77c-.35,0-.7-.07-1.04-.23-1.26-.57-1.81-2.06-1.24-3.31,1.37-3,2.77-8.96,2.96-11.74.09-1.38,1.28-2.41,2.66-2.33,1.38.09,2.42,1.29,2.33,2.66-.23,3.34-1.73,9.82-3.4,13.48-.42.92-1.33,1.46-2.28,1.46Z"
       id="path87" />
    <path
       class="ag"
       d="M737.19,874.28c-1.38,0-2.5-1.12-2.5-2.5s1.12-2.5,2.5-2.5c.7,0,1.84-.23,2.27-.52,1.14-.78,2.69-.49,3.48.64.78,1.14.49,2.69-.64,3.48-1.97,1.36-4.79,1.4-5.1,1.4Z"
       id="path88" />
    <path
       class="ag"
       d="M753.95,935.14c-.74,0-1.48-.33-1.97-.96-.85-1.09-.66-2.66.43-3.51.45-.35.81-.66,1.06-.88,1.04-.9,2.62-.8,3.53.25.91,1.04.8,2.62-.25,3.53-.3.26-.73.62-1.26,1.04-.46.36-1,.53-1.54.53Z"
       id="path89" />
    <path
       class="ag"
       d="M736.63,941.88c-1.16,0-2.2-.81-2.45-1.99-.28-1.35.59-2.67,1.94-2.96,7.09-1.47,11.28-3.35,11.32-3.37,1.26-.57,2.74-.02,3.31,1.24.57,1.25.02,2.74-1.23,3.31-.19.09-4.69,2.12-12.38,3.72-.17.04-.34.05-.51.05Z"
       id="path90" />
    <path
       class="ag"
       d="M864.75,846.02s-.06,0-.09,0c-.91-.03-1.72-.02-2.31,0-.26,0-.48,0-.66,0-1.38,0-2.5-1.12-2.5-2.5s1.12-2.5,2.5-2.5c.16,0,.35,0,.57,0,.65-.01,1.54-.03,2.59,0,1.38.05,2.46,1.21,2.41,2.59-.05,1.35-1.16,2.41-2.5,2.41Z"
       id="path91" />
    <path
       class="ag"
       d="M882.3,847.29c-1.52,0-3.07-.22-4.61-.44-1.97-.28-4.01-.55-6.33-.56h0c-1.38,0-2.49-1.11-2.5-2.49,0-1.38,1.11-2.5,2.49-2.51,2.65,0,5,.32,7.05.61,5.22.74,6.98.99,8.97-3.76.53-1.27,2-1.87,3.27-1.34,1.27.53,1.87,2,1.34,3.27-2.48,5.9-5.96,7.22-9.68,7.22Z"
       id="path92" />
    <path
       class="ag"
       d="M518.74,955.75c-1.41,0-2.7-.44-3.69-1.15-1.12-.8-1.38-2.37-.57-3.49.81-1.12,2.37-1.38,3.49-.57.61.44,1.76.31,2.96-.98,2.14-2.29,7.75-8.15,7.81-8.21.95-1,2.54-1.03,3.53-.08,1,.96,1.03,2.54.08,3.54-.06.06-5.65,5.89-7.77,8.16-1.86,1.99-3.96,2.78-5.84,2.78Z"
       id="path93" />
    <path
       class="ag"
       d="M608.26,954.07c-1.03,0-1.99-.64-2.35-1.66-.46-1.3.22-2.73,1.52-3.19,1.97-.7,2.12-1.57,1.93-4.98-.13-2.36-.3-5.3,1.62-7.69,2.8-3.5,7.51-2.96,10.94-2.56,1.27.15,3.19.37,3.71.12,1.56-.77,1.77-1.98,1.79-2.12.1-1.38,1.3-2.38,2.68-2.27,1.38.1,2.41,1.34,2.3,2.71-.11,1.51-1.2,4.5-4.55,6.16-1.82.9-4.09.64-6.49.37-2.53-.29-5.4-.62-6.47.72-.72.9-.63,2.47-.53,4.28.18,3.16.45,7.95-5.24,9.97-.28.1-.56.15-.84.15Z"
       id="path94" />
    <path
       class="ag"
       d="M503.49,849.07c-1.96,0-3.56-.7-3.82-.82-1.25-.58-1.8-2.07-1.22-3.32.58-1.25,2.07-1.8,3.32-1.22.54.24,1.93.59,2.71.13,1-.6,3.75-4.29,5.69-7.37.74-1.17,2.28-1.52,3.45-.78,1.17.74,1.52,2.28.78,3.45-1.09,1.73-4.85,7.51-7.37,9.01-1.18.7-2.42.93-3.55.93Z"
       id="path95" />
    <path
       class="ag"
       d="M467.32,952.66c-1.56,0-3.38-.18-5.44-.69-1.34-.33-2.16-1.69-1.83-3.03.33-1.34,1.68-2.16,3.03-1.83,4.07,1.01,6.76.41,8.01-.03,1.3-.46,2.73.22,3.19,1.52.46,1.3-.22,2.73-1.52,3.19-1.09.39-2.94.86-5.44.86Z"
       id="path96" />
    <path
       class="ag"
       d="M478.36,946.04c-.34,0-.69-.07-1.02-.22-1.26-.56-1.82-2.04-1.26-3.3,1.31-2.92,1.13-9.14,1.02-12.86-.04-1.38,1.05-2.53,2.43-2.57,1.37-.06,2.53,1.05,2.57,2.43.16,5.61.19,11.39-1.45,15.05-.42.93-1.33,1.48-2.28,1.48Z"
       id="path97" />
    <path
       class="ag"
       d="M449.77,872.28l-.26-4.99s2.55-.13,4.17-.17c1.39-.02,2.52,1.07,2.55,2.45s-1.07,2.52-2.45,2.55c-1.55.03-4,.16-4.01.16Z"
       id="path98" />
    <path
       class="ag"
       d="M466.24,872.15c-.82,0-1.66-.02-2.49-.03-1.15-.02-2.23-.04-3.04,0-1.37.06-2.55-1.01-2.61-2.38-.06-1.38,1.01-2.55,2.38-2.61.97-.04,2.13-.02,3.36,0,2.1.04,6.46.12,7.39-.56.87-1.09,1.05-7.05,1.12-9,.02-.52.03-.99.05-1.39.06-1.38,1.24-2.44,2.61-2.39,1.38.06,2.45,1.23,2.39,2.61-.02.38-.03.83-.05,1.33-.17,5.32-.46,9.91-2.38,12.16-1.68,1.97-5.09,2.28-8.73,2.28Z"
       id="path99" />
  </g>
</svg>
